<svg xmlns="http://www.w3.org/2000/svg" xmlns:xlink="http://www.w3.org/1999/xlink" width="1867.25" height="644.67"><g transform="translate(136.25308641975315 -100)"><path d="M160 120v160h48V120zM352 120v160h48V120z" fill="none"/><path d="M229.6 160H160m69.6 80H160zm104.64-40H400zm-116.4-64l4.8 7.84s13.68 22.4 13.68 56.16-13.68 56.16-13.68 56.16l-4.8 7.84h41.28c5.76 0 18.24 0 32.64-7.68 14.16-7.84 30-23.52 42.48-54.08v-4.48C309.52 136.64 270.4 136 259.12 136h-41.28z" stroke="#000" stroke-width="2" fill="#fff"/><path d="M204.4 264c13.13 0 22.8-28.65 22.8-64s-9.67-64-21.6-64" stroke="#000" stroke-width="2" fill="none"/><path d="M400 160v160h48V160zM592 160v160h48V160z" fill="none"/><path d="M469.6 200H400m69.6 80H400zm104.64-40H640zm-116.4-64l4.8 7.84s13.68 22.4 13.68 56.16-13.68 56.16-13.68 56.16l-4.8 7.84h41.28c5.76 0 18.24 0 32.64-7.68 14.16-7.84 30-23.52 42.48-54.08v-4.48C549.52 176.64 510.4 176 499.12 176h-41.28z" stroke="#000" stroke-width="2" fill="#fff"/><path d="M640 200v160h48V200zM832 200v160h48V200z" fill="none"/><path d="M709.6 240H640m69.6 80H640zm104.64-40H880zm-116.4-64l4.8 7.84s13.68 22.4 13.68 56.16-13.68 56.16-13.68 56.16l-4.8 7.84h41.28c5.76 0 18.24 0 32.64-7.68 14.16-7.84 30-23.52 42.48-54.08v-4.48C789.52 216.64 750.4 216 739.12 216h-41.28z" stroke="#000" stroke-width="2" fill="#fff"/><path d="M860 240v160h48V240zM1052 240v160h48V240z" fill="none"/><path d="M926.72 280H860m66.72 80H860zm108.48-40h64.8zm-108.48-80V400H981.2c30 0 53.52-36 53.52-80s-23.52-80-53.52-80H926.72zM1388.16 381.92h106.56V548.2h-106.56V381.92zm0 0h106.56V548.2h-106.56V381.92zm94.08 31.5c-1.76 0-3.2.68-4.16 2.03-.96 1.35-1.6 3.38-1.6 5.85 0 2.47.64 4.28 1.6 5.62.96 1.58 2.4 2.25 4.16 2.25 1.76 0 3.04-.67 4.16-2.25.96-1.34 1.44-3.15 1.44-5.62s-.48-4.5-1.44-5.85c-1.12-1.35-2.4-2.03-4.16-2.03m3.36 17.1l3.2 3.83h-2.88l-2.72-3.15h-.64-.32c-2.56 0-4.48-.9-5.92-2.7-1.6-1.8-2.24-4.27-2.24-7.2 0-3.15.64-5.63 2.24-7.43 1.44-1.8 3.36-2.7 5.92-2.7 2.4 0 4.48.9 5.92 2.7 1.44 1.8 2.24 4.28 2.24 7.43 0 2.25-.32 4.05-1.28 5.62-.8 1.8-1.92 2.93-3.52 3.6m-97.44-48.6h106.56V548.2h-106.56V381.92zm94.08 31.5c-1.76 0-3.2.68-4.16 2.03-.96 1.35-1.6 3.38-1.6 5.85 0 2.47.64 4.28 1.6 5.62.96 1.58 2.4 2.25 4.16 2.25 1.76 0 3.04-.67 4.16-2.25.96-1.34 1.44-3.15 1.44-5.62s-.48-4.5-1.44-5.85c-1.12-1.35-2.4-2.03-4.16-2.03m3.36 17.1l3.2 3.83h-2.88l-2.72-3.15h-.64-.32c-2.56 0-4.48-.9-5.92-2.7-1.6-1.8-2.24-4.27-2.24-7.2 0-3.15.64-5.63 2.24-7.43 1.44-1.8 3.36-2.7 5.92-2.7 2.4 0 4.48.9 5.92 2.7 1.44 1.8 2.24 4.28 2.24 7.43 0 2.25-.32 4.05-1.28 5.62-.8 1.8-1.92 2.93-3.52 3.6m-6.24 72c-1.76 0-3.2.9-4.16 2.25-.96 1.36-1.6 3.38-1.6 5.86 0 2.25.64 4.27 1.6 5.62.96 1.35 2.4 2.25 4.16 2.25 1.76 0 3.04-.9 4.16-2.25.96-1.35 1.44-3.38 1.44-5.63 0-2.47-.48-4.5-1.44-5.85-1.12-1.35-2.4-2.25-4.16-2.25m3.36 17.33l3.2 3.82h-2.88l-2.72-3.14h-.64-.32c-2.56 0-4.48-.9-5.92-2.7-1.6-1.8-2.24-4.28-2.24-7.2 0-3.15.64-5.63 2.24-7.43 1.44-1.8 3.36-2.7 5.92-2.7s4.48.9 5.92 2.7c1.6 1.8 2.24 4.28 2.24 7.43 0 2.02-.32 4.04-1.28 5.62-.8 1.58-1.92 2.7-3.52 3.6m-94.56-137.93h106.56V548.2h-106.56V381.92zm94.08 31.5c-1.76 0-3.2.68-4.16 2.03-.96 1.35-1.6 3.38-1.6 5.85 0 2.47.64 4.28 1.6 5.62.96 1.58 2.4 2.25 4.16 2.25 1.76 0 3.04-.67 4.16-2.25.96-1.34 1.44-3.15 1.44-5.62s-.48-4.5-1.44-5.85c-1.12-1.35-2.4-2.03-4.16-2.03m3.36 17.1l3.2 3.83h-2.88l-2.72-3.15h-.64-.32c-2.56 0-4.48-.9-5.92-2.7-1.6-1.8-2.24-4.27-2.24-7.2 0-3.15.64-5.63 2.24-7.43 1.44-1.8 3.36-2.7 5.92-2.7 2.4 0 4.48.9 5.92 2.7 1.44 1.8 2.24 4.28 2.24 7.43 0 2.25-.32 4.05-1.28 5.62-.8 1.8-1.92 2.93-3.52 3.6m-6.24 72c-1.76 0-3.2.9-4.16 2.25-.96 1.36-1.6 3.38-1.6 5.86 0 2.25.64 4.27 1.6 5.62.96 1.35 2.4 2.25 4.16 2.25 1.76 0 3.04-.9 4.16-2.25.96-1.35 1.44-3.38 1.44-5.63 0-2.47-.48-4.5-1.44-5.85-1.12-1.35-2.4-2.25-4.16-2.25m3.36 17.33l3.2 3.82h-2.88l-2.72-3.14h-.64-.32c-2.56 0-4.48-.9-5.92-2.7-1.6-1.8-2.24-4.28-2.24-7.2 0-3.15.64-5.63 2.24-7.43 1.44-1.8 3.36-2.7 5.92-2.7s4.48.9 5.92 2.7c1.6 1.8 2.24 4.28 2.24 7.43 0 2.02-.32 4.04-1.28 5.62-.8 1.58-1.92 2.7-3.52 3.6m-77.6-107.1v2.48c-.96-.46-1.76-.9-2.56-1.13-.96-.23-1.6-.23-2.4-.23-1.28 0-2.4.23-3.04.9-.64.46-1.12 1.13-1.12 2.25 0 .9.32 1.58.8 2.03.48.45 1.28.68 2.72.9l1.44.45c1.76.23 3.04.9 3.84 1.8.96 1.13 1.28 2.25 1.28 3.82 0 1.8-.48 3.38-1.76 4.28-1.12.9-2.72 1.35-4.96 1.35-.8 0-1.76 0-2.72-.23-.96-.22-1.92-.44-2.88-.9v-2.7c.96.68 1.92 1.13 2.88 1.35.8.23 1.76.45 2.72.45 1.28 0 2.4-.22 3.2-.9.64-.67 1.12-1.35 1.12-2.47 0-.9-.32-1.8-.8-2.25-.64-.45-1.44-.9-2.72-1.13l-1.44-.45c-1.76-.22-3.04-.9-3.84-1.8-.8-.67-1.28-2.02-1.28-3.37 0-1.8.64-3.15 1.76-4.05 1.12-.9 2.56-1.57 4.48-1.57.8 0 1.76.22 2.56.45.8 0 1.76.22 2.72.67m-16.96-30.83h106.56V548.2h-106.56V381.92zm94.08 31.5c-1.76 0-3.2.68-4.16 2.03-.96 1.35-1.6 3.38-1.6 5.85 0 2.47.64 4.28 1.6 5.62.96 1.58 2.4 2.25 4.16 2.25 1.76 0 3.04-.67 4.16-2.25.96-1.34 1.44-3.15 1.44-5.62s-.48-4.5-1.44-5.85c-1.12-1.35-2.4-2.03-4.16-2.03m3.36 17.1l3.2 3.83h-2.88l-2.72-3.15h-.64-.32c-2.56 0-4.48-.9-5.92-2.7-1.6-1.8-2.24-4.27-2.24-7.2 0-3.15.64-5.63 2.24-7.43 1.44-1.8 3.36-2.7 5.92-2.7 2.4 0 4.48.9 5.92 2.7 1.44 1.8 2.24 4.28 2.24 7.43 0 2.25-.32 4.05-1.28 5.62-.8 1.8-1.92 2.93-3.52 3.6m-6.24 72c-1.76 0-3.2.9-4.16 2.25-.96 1.36-1.6 3.38-1.6 5.86 0 2.25.64 4.27 1.6 5.62.96 1.35 2.4 2.25 4.16 2.25 1.76 0 3.04-.9 4.16-2.25.96-1.35 1.44-3.38 1.44-5.63 0-2.47-.48-4.5-1.44-5.85-1.12-1.35-2.4-2.25-4.16-2.25m3.36 17.33l3.2 3.82h-2.88l-2.72-3.14h-.64-.32c-2.56 0-4.48-.9-5.92-2.7-1.6-1.8-2.24-4.28-2.24-7.2 0-3.15.64-5.63 2.24-7.43 1.44-1.8 3.36-2.7 5.92-2.7s4.48.9 5.92 2.7c1.6 1.8 2.24 4.28 2.24 7.43 0 2.02-.32 4.04-1.28 5.62-.8 1.58-1.92 2.7-3.52 3.6m-77.6-107.1v2.48c-.96-.46-1.76-.9-2.56-1.13-.96-.23-1.6-.23-2.4-.23-1.28 0-2.4.23-3.04.9-.64.46-1.12 1.13-1.12 2.25 0 .9.32 1.58.8 2.03.48.45 1.28.68 2.72.9l1.44.45c1.76.23 3.04.9 3.84 1.8.96 1.13 1.28 2.25 1.28 3.82 0 1.8-.48 3.38-1.76 4.28-1.12.9-2.72 1.35-4.96 1.35-.8 0-1.76 0-2.72-.23-.96-.22-1.92-.44-2.88-.9v-2.7c.96.68 1.92 1.13 2.88 1.35.8.23 1.76.45 2.72.45 1.28 0 2.4-.22 3.2-.9.64-.67 1.12-1.35 1.12-2.47 0-.9-.32-1.8-.8-2.25-.64-.45-1.44-.9-2.72-1.13l-1.44-.45c-1.76-.22-3.04-.9-3.84-1.8-.8-.67-1.28-2.02-1.28-3.37 0-1.8.64-3.15 1.76-4.05 1.12-.9 2.56-1.57 4.48-1.57.8 0 1.76.22 2.56.45.8 0 1.76.22 2.72.67m-2.56 97.42c.48 0 1.12.45 1.6 1.13.48.68.96 1.57 1.44 2.47l2.4 5.4h-2.56l-2.24-4.94c-.64-1.36-1.12-2.25-1.76-2.7-.48-.45-1.28-.45-2.24-.45h-2.56v8.1h-2.4v-19.35h5.44c1.92 0 3.52.44 4.48 1.34.96.9 1.44 2.25 1.44 4.28 0 1.13-.16 2.25-.8 2.93-.48.9-1.28 1.35-2.24 1.8m-5.92-8.1v6.75h3.04c1.12 0 1.92-.23 2.56-.9.64-.45.8-1.35.8-2.48 0-1.12-.16-2.03-.8-2.7-.64-.45-1.44-.67-2.56-.67h-3.04m-8.48-120.16h106.56V548.2h-106.56V381.92zm94.08 31.5c-1.76 0-3.2.68-4.16 2.03-.96 1.35-1.6 3.38-1.6 5.85 0 2.47.64 4.28 1.6 5.62.96 1.58 2.4 2.25 4.16 2.25 1.76 0 3.04-.67 4.16-2.25.96-1.34 1.44-3.15 1.44-5.62s-.48-4.5-1.44-5.85c-1.12-1.35-2.4-2.03-4.16-2.03m3.36 17.1l3.2 3.83h-2.88l-2.72-3.15h-.64-.32c-2.56 0-4.48-.9-5.92-2.7-1.6-1.8-2.24-4.27-2.24-7.2 0-3.15.64-5.63 2.24-7.43 1.44-1.8 3.36-2.7 5.92-2.7 2.4 0 4.48.9 5.92 2.7 1.44 1.8 2.24 4.28 2.24 7.43 0 2.25-.32 4.05-1.28 5.62-.8 1.8-1.92 2.93-3.52 3.6m-6.24 72c-1.76 0-3.2.9-4.16 2.25-.96 1.36-1.6 3.38-1.6 5.86 0 2.25.64 4.27 1.6 5.62.96 1.35 2.4 2.25 4.16 2.25 1.76 0 3.04-.9 4.16-2.25.96-1.35 1.44-3.38 1.44-5.63 0-2.47-.48-4.5-1.44-5.85-1.12-1.35-2.4-2.25-4.16-2.25m3.36 17.33l3.2 3.82h-2.88l-2.72-3.14h-.64-.32c-2.56 0-4.48-.9-5.92-2.7-1.6-1.8-2.24-4.28-2.24-7.2 0-3.15.64-5.63 2.24-7.43 1.44-1.8 3.36-2.7 5.92-2.7s4.48.9 5.92 2.7c1.6 1.8 2.24 4.28 2.24 7.43 0 2.02-.32 4.04-1.28 5.62-.8 1.58-1.92 2.7-3.52 3.6m-77.6-107.1v2.48c-.96-.46-1.76-.9-2.56-1.13-.96-.23-1.6-.23-2.4-.23-1.28 0-2.4.23-3.04.9-.64.46-1.12 1.13-1.12 2.25 0 .9.32 1.58.8 2.03.48.45 1.28.68 2.72.9l1.44.45c1.76.23 3.04.9 3.84 1.8.96 1.13 1.28 2.25 1.28 3.82 0 1.8-.48 3.38-1.76 4.28-1.12.9-2.72 1.35-4.96 1.35-.8 0-1.76 0-2.72-.23-.96-.22-1.92-.44-2.88-.9v-2.7c.96.68 1.92 1.13 2.88 1.35.8.23 1.76.45 2.72.45 1.28 0 2.4-.22 3.2-.9.64-.67 1.12-1.35 1.12-2.47 0-.9-.32-1.8-.8-2.25-.64-.45-1.44-.9-2.72-1.13l-1.44-.45c-1.76-.22-3.04-.9-3.84-1.8-.8-.67-1.28-2.02-1.28-3.37 0-1.8.64-3.15 1.76-4.05 1.12-.9 2.56-1.57 4.48-1.57.8 0 1.76.22 2.56.45.8 0 1.76.22 2.72.67m-2.56 97.42c.48 0 1.12.45 1.6 1.13.48.68.96 1.57 1.44 2.47l2.4 5.4h-2.56l-2.24-4.94c-.64-1.36-1.12-2.25-1.76-2.7-.48-.45-1.28-.45-2.24-.45h-2.56v8.1h-2.4v-19.35h5.44c1.92 0 3.52.44 4.48 1.34.96.9 1.44 2.25 1.44 4.28 0 1.13-.16 2.25-.8 2.93-.48.9-1.28 1.35-2.24 1.8m-5.92-8.1v6.75h3.04c1.12 0 1.92-.23 2.56-.9.64-.45.8-1.35.8-2.48 0-1.12-.16-2.03-.8-2.7-.64-.45-1.44-.67-2.56-.67h-3.04m71.68-4.28h22.4m-102.56-115.88h106.56V548.2h-106.56V381.92zm94.08 31.5c-1.76 0-3.2.68-4.16 2.03-.96 1.35-1.6 3.38-1.6 5.85 0 2.47.64 4.28 1.6 5.62.96 1.58 2.4 2.25 4.16 2.25 1.76 0 3.04-.67 4.16-2.25.96-1.34 1.44-3.15 1.44-5.62s-.48-4.5-1.44-5.85c-1.12-1.35-2.4-2.03-4.16-2.03m3.36 17.1l3.2 3.83h-2.88l-2.72-3.15h-.64-.32c-2.56 0-4.48-.9-5.92-2.7-1.6-1.8-2.24-4.27-2.24-7.2 0-3.15.64-5.63 2.24-7.43 1.44-1.8 3.36-2.7 5.92-2.7 2.4 0 4.48.9 5.92 2.7 1.44 1.8 2.24 4.28 2.24 7.43 0 2.25-.32 4.05-1.28 5.62-.8 1.8-1.92 2.93-3.52 3.6m-6.24 72c-1.76 0-3.2.9-4.16 2.25-.96 1.36-1.6 3.38-1.6 5.86 0 2.25.64 4.27 1.6 5.62.96 1.35 2.4 2.25 4.16 2.25 1.76 0 3.04-.9 4.16-2.25.96-1.35 1.44-3.38 1.44-5.63 0-2.47-.48-4.5-1.44-5.85-1.12-1.35-2.4-2.25-4.16-2.25m3.36 17.33l3.2 3.82h-2.88l-2.72-3.14h-.64-.32c-2.56 0-4.48-.9-5.92-2.7-1.6-1.8-2.24-4.28-2.24-7.2 0-3.15.64-5.63 2.24-7.43 1.44-1.8 3.36-2.7 5.92-2.7s4.48.9 5.92 2.7c1.6 1.8 2.24 4.28 2.24 7.43 0 2.02-.32 4.04-1.28 5.62-.8 1.58-1.92 2.7-3.52 3.6m-77.6-107.1v2.48c-.96-.46-1.76-.9-2.56-1.13-.96-.23-1.6-.23-2.4-.23-1.28 0-2.4.23-3.04.9-.64.46-1.12 1.13-1.12 2.25 0 .9.32 1.58.8 2.03.48.45 1.28.68 2.72.9l1.44.45c1.76.23 3.04.9 3.84 1.8.96 1.13 1.28 2.25 1.28 3.82 0 1.8-.48 3.38-1.76 4.28-1.12.9-2.72 1.35-4.96 1.35-.8 0-1.76 0-2.72-.23-.96-.22-1.92-.44-2.88-.9v-2.7c.96.68 1.92 1.13 2.88 1.35.8.23 1.76.45 2.72.45 1.28 0 2.4-.22 3.2-.9.64-.67 1.12-1.35 1.12-2.47 0-.9-.32-1.8-.8-2.25-.64-.45-1.44-.9-2.72-1.13l-1.44-.45c-1.76-.22-3.04-.9-3.84-1.8-.8-.67-1.28-2.02-1.28-3.37 0-1.8.64-3.15 1.76-4.05 1.12-.9 2.56-1.57 4.48-1.57.8 0 1.76.22 2.56.45.8 0 1.76.22 2.72.67m-2.56 97.42c.48 0 1.12.45 1.6 1.13.48.68.96 1.57 1.44 2.47l2.4 5.4h-2.56l-2.24-4.94c-.64-1.36-1.12-2.25-1.76-2.7-.48-.45-1.28-.45-2.24-.45h-2.56v8.1h-2.4v-19.35h5.44c1.92 0 3.52.44 4.48 1.34.96.9 1.44 2.25 1.44 4.28 0 1.13-.16 2.25-.8 2.93-.48.9-1.28 1.35-2.24 1.8m-5.92-8.1v6.75h3.04c1.12 0 1.92-.23 2.56-.9.64-.45.8-1.35.8-2.48 0-1.12-.16-2.03-.8-2.7-.64-.45-1.44-.67-2.56-.67h-3.04m71.68-4.28h22.4m4-75.38H1520m-131.84-40.5h106.56V548.2h-106.56V381.92zm94.08 31.5c-1.76 0-3.2.68-4.16 2.03-.96 1.35-1.6 3.38-1.6 5.85 0 2.47.64 4.28 1.6 5.62.96 1.58 2.4 2.25 4.16 2.25 1.76 0 3.04-.67 4.16-2.25.96-1.34 1.44-3.15 1.44-5.62s-.48-4.5-1.44-5.85c-1.12-1.35-2.4-2.03-4.16-2.03m3.36 17.1l3.2 3.83h-2.88l-2.72-3.15h-.64-.32c-2.56 0-4.48-.9-5.92-2.7-1.6-1.8-2.24-4.27-2.24-7.2 0-3.15.64-5.63 2.24-7.43 1.44-1.8 3.36-2.7 5.92-2.7 2.4 0 4.48.9 5.92 2.7 1.44 1.8 2.24 4.28 2.24 7.43 0 2.25-.32 4.05-1.28 5.62-.8 1.8-1.92 2.93-3.52 3.6m-6.24 72c-1.76 0-3.2.9-4.16 2.25-.96 1.36-1.6 3.38-1.6 5.86 0 2.25.64 4.27 1.6 5.62.96 1.35 2.4 2.25 4.16 2.25 1.76 0 3.04-.9 4.16-2.25.96-1.35 1.44-3.38 1.44-5.63 0-2.47-.48-4.5-1.44-5.85-1.12-1.35-2.4-2.25-4.16-2.25m3.36 17.33l3.2 3.82h-2.88l-2.72-3.14h-.64-.32c-2.56 0-4.48-.9-5.92-2.7-1.6-1.8-2.24-4.28-2.24-7.2 0-3.15.64-5.63 2.24-7.43 1.44-1.8 3.36-2.7 5.92-2.7s4.48.9 5.92 2.7c1.6 1.8 2.24 4.28 2.24 7.43 0 2.02-.32 4.04-1.28 5.62-.8 1.58-1.92 2.7-3.52 3.6m-77.6-107.1v2.48c-.96-.46-1.76-.9-2.56-1.13-.96-.23-1.6-.23-2.4-.23-1.28 0-2.4.23-3.04.9-.64.46-1.12 1.13-1.12 2.25 0 .9.32 1.58.8 2.03.48.45 1.28.68 2.72.9l1.44.45c1.76.23 3.04.9 3.84 1.8.96 1.13 1.28 2.25 1.28 3.82 0 1.8-.48 3.38-1.76 4.28-1.12.9-2.72 1.35-4.96 1.35-.8 0-1.76 0-2.72-.23-.96-.22-1.92-.44-2.88-.9v-2.7c.96.68 1.92 1.13 2.88 1.35.8.23 1.76.45 2.72.45 1.28 0 2.4-.22 3.2-.9.64-.67 1.12-1.35 1.12-2.47 0-.9-.32-1.8-.8-2.25-.64-.45-1.44-.9-2.72-1.13l-1.44-.45c-1.76-.22-3.04-.9-3.84-1.8-.8-.67-1.28-2.02-1.28-3.37 0-1.8.64-3.15 1.76-4.05 1.12-.9 2.56-1.57 4.48-1.57.8 0 1.76.22 2.56.45.8 0 1.76.22 2.72.67m-2.56 97.42c.48 0 1.12.45 1.6 1.13.48.68.96 1.57 1.44 2.47l2.4 5.4h-2.56l-2.24-4.94c-.64-1.36-1.12-2.25-1.76-2.7-.48-.45-1.28-.45-2.24-.45h-2.56v8.1h-2.4v-19.35h5.44c1.92 0 3.52.44 4.48 1.34.96.9 1.44 2.25 1.44 4.28 0 1.13-.16 2.25-.8 2.93-.48.9-1.28 1.35-2.24 1.8m-5.92-8.1v6.75h3.04c1.12 0 1.92-.23 2.56-.9.64-.45.8-1.35.8-2.48 0-1.12-.16-2.03-.8-2.7-.64-.45-1.44-.67-2.56-.67h-3.04m71.68-4.28h22.4m4-75.38H1520m-25.12 85.5H1520m-131.84-126h106.56V548.2h-106.56V381.92zm94.08 31.5c-1.76 0-3.2.68-4.16 2.03-.96 1.35-1.6 3.38-1.6 5.85 0 2.47.64 4.28 1.6 5.62.96 1.58 2.4 2.25 4.16 2.25 1.76 0 3.04-.67 4.16-2.25.96-1.34 1.44-3.15 1.44-5.62s-.48-4.5-1.44-5.85c-1.12-1.35-2.4-2.03-4.16-2.03m3.36 17.1l3.2 3.83h-2.88l-2.72-3.15h-.64-.32c-2.56 0-4.48-.9-5.92-2.7-1.6-1.8-2.24-4.27-2.24-7.2 0-3.15.64-5.63 2.24-7.43 1.44-1.8 3.36-2.7 5.92-2.7 2.4 0 4.48.9 5.92 2.7 1.44 1.8 2.24 4.28 2.24 7.43 0 2.25-.32 4.05-1.28 5.62-.8 1.8-1.92 2.93-3.52 3.6m-6.24 72c-1.76 0-3.2.9-4.16 2.25-.96 1.36-1.6 3.38-1.6 5.86 0 2.25.64 4.27 1.6 5.62.96 1.35 2.4 2.25 4.16 2.25 1.76 0 3.04-.9 4.16-2.25.96-1.35 1.44-3.38 1.44-5.63 0-2.47-.48-4.5-1.44-5.85-1.12-1.35-2.4-2.25-4.16-2.25m3.36 17.33l3.2 3.82h-2.88l-2.72-3.14h-.64-.32c-2.56 0-4.48-.9-5.92-2.7-1.6-1.8-2.24-4.28-2.24-7.2 0-3.15.64-5.63 2.24-7.43 1.44-1.8 3.36-2.7 5.92-2.7s4.48.9 5.92 2.7c1.6 1.8 2.24 4.28 2.24 7.43 0 2.02-.32 4.04-1.28 5.62-.8 1.58-1.92 2.7-3.52 3.6m-77.6-107.1v2.48c-.96-.46-1.76-.9-2.56-1.13-.96-.23-1.6-.23-2.4-.23-1.28 0-2.4.23-3.04.9-.64.46-1.12 1.13-1.12 2.25 0 .9.32 1.58.8 2.03.48.45 1.28.68 2.72.9l1.44.45c1.76.23 3.04.9 3.84 1.8.96 1.13 1.28 2.25 1.28 3.82 0 1.8-.48 3.38-1.76 4.28-1.12.9-2.72 1.35-4.96 1.35-.8 0-1.76 0-2.72-.23-.96-.22-1.92-.44-2.88-.9v-2.7c.96.68 1.92 1.13 2.88 1.35.8.23 1.76.45 2.72.45 1.28 0 2.4-.22 3.2-.9.64-.67 1.12-1.35 1.12-2.47 0-.9-.32-1.8-.8-2.25-.64-.45-1.44-.9-2.72-1.13l-1.44-.45c-1.76-.22-3.04-.9-3.84-1.8-.8-.67-1.28-2.02-1.28-3.37 0-1.8.64-3.15 1.76-4.05 1.12-.9 2.56-1.57 4.48-1.57.8 0 1.76.22 2.56.45.8 0 1.76.22 2.72.67m-2.56 97.42c.48 0 1.12.45 1.6 1.13.48.68.96 1.57 1.44 2.47l2.4 5.4h-2.56l-2.24-4.94c-.64-1.36-1.12-2.25-1.76-2.7-.48-.45-1.28-.45-2.24-.45h-2.56v8.1h-2.4v-19.35h5.44c1.92 0 3.52.44 4.48 1.34.96.9 1.44 2.25 1.44 4.28 0 1.13-.16 2.25-.8 2.93-.48.9-1.28 1.35-2.24 1.8m-5.92-8.1v6.75h3.04c1.12 0 1.92-.23 2.56-.9.64-.45.8-1.35.8-2.48 0-1.12-.16-2.03-.8-2.7-.64-.45-1.44-.67-2.56-.67h-3.04m71.68-4.28h22.4m4-75.38H1520m-25.12 85.5H1520m-158.72 0h25.6m1.28-126h106.56V548.2h-106.56V381.92zm94.08 31.5c-1.76 0-3.2.68-4.16 2.03-.96 1.35-1.6 3.38-1.6 5.85 0 2.47.64 4.28 1.6 5.62.96 1.58 2.4 2.25 4.16 2.25 1.76 0 3.04-.67 4.16-2.25.96-1.34 1.44-3.15 1.44-5.62s-.48-4.5-1.44-5.85c-1.12-1.35-2.4-2.03-4.16-2.03m3.36 17.1l3.2 3.83h-2.88l-2.72-3.15h-.64-.32c-2.56 0-4.48-.9-5.92-2.7-1.6-1.8-2.24-4.27-2.24-7.2 0-3.15.64-5.63 2.24-7.43 1.44-1.8 3.36-2.7 5.92-2.7 2.4 0 4.48.9 5.92 2.7 1.44 1.8 2.24 4.28 2.24 7.43 0 2.25-.32 4.05-1.28 5.62-.8 1.8-1.92 2.93-3.52 3.6m-6.24 72c-1.76 0-3.2.9-4.16 2.25-.96 1.36-1.6 3.38-1.6 5.86 0 2.25.64 4.27 1.6 5.62.96 1.35 2.4 2.25 4.16 2.25 1.76 0 3.04-.9 4.16-2.25.96-1.35 1.44-3.38 1.44-5.63 0-2.47-.48-4.5-1.44-5.85-1.12-1.35-2.4-2.25-4.16-2.25m3.36 17.33l3.2 3.82h-2.88l-2.72-3.14h-.64-.32c-2.56 0-4.48-.9-5.92-2.7-1.6-1.8-2.24-4.28-2.24-7.2 0-3.15.64-5.63 2.24-7.43 1.44-1.8 3.36-2.7 5.92-2.7s4.48.9 5.92 2.7c1.6 1.8 2.24 4.28 2.24 7.43 0 2.02-.32 4.04-1.28 5.62-.8 1.58-1.92 2.7-3.52 3.6m-77.6-107.1v2.48c-.96-.46-1.76-.9-2.56-1.13-.96-.23-1.6-.23-2.4-.23-1.28 0-2.4.23-3.04.9-.64.46-1.12 1.13-1.12 2.25 0 .9.32 1.58.8 2.03.48.45 1.28.68 2.72.9l1.44.45c1.76.23 3.04.9 3.84 1.8.96 1.13 1.28 2.25 1.28 3.82 0 1.8-.48 3.38-1.76 4.28-1.12.9-2.72 1.35-4.96 1.35-.8 0-1.76 0-2.72-.23-.96-.22-1.92-.44-2.88-.9v-2.7c.96.68 1.92 1.13 2.88 1.35.8.23 1.76.45 2.72.45 1.28 0 2.4-.22 3.2-.9.64-.67 1.12-1.35 1.12-2.47 0-.9-.32-1.8-.8-2.25-.64-.45-1.44-.9-2.72-1.13l-1.44-.45c-1.76-.22-3.04-.9-3.84-1.8-.8-.67-1.28-2.02-1.28-3.37 0-1.8.64-3.15 1.76-4.05 1.12-.9 2.56-1.57 4.48-1.57.8 0 1.76.22 2.56.45.8 0 1.76.22 2.72.67m-2.56 97.42c.48 0 1.12.45 1.6 1.13.48.68.96 1.57 1.44 2.47l2.4 5.4h-2.56l-2.24-4.94c-.64-1.36-1.12-2.25-1.76-2.7-.48-.45-1.28-.45-2.24-.45h-2.56v8.1h-2.4v-19.35h5.44c1.92 0 3.52.44 4.48 1.34.96.9 1.44 2.25 1.44 4.28 0 1.13-.16 2.25-.8 2.93-.48.9-1.28 1.35-2.24 1.8m-5.92-8.1v6.75h3.04c1.12 0 1.92-.23 2.56-.9.64-.45.8-1.35.8-2.48 0-1.12-.16-2.03-.8-2.7-.64-.45-1.44-.67-2.56-.67h-3.04m71.68-4.28h22.4m4-75.38H1520m-25.12 85.5H1520m-158.72 0h25.6m-25.92-85.05h26.24" stroke="#000" stroke-width="2" fill="#fff"/><path d="M1120 480v160h48V480zM1312 480v160h48V480z" fill="none"/><path d="M1189.6 520H1120m69.6 80H1120zm104.64-40H1360zm-116.4-64l4.8 7.84s13.68 22.4 13.68 56.16-13.68 56.16-13.68 56.16l-4.8 7.84h41.28c5.76 0 18.24 0 32.64-7.68 14.16-7.84 30-23.52 42.48-54.08v-4.48c-24.72-61.12-63.84-61.76-75.12-61.76h-41.28z" stroke="#000" stroke-width="2" fill="#fff"/><path d="M1100 320h10v200h10" stroke="#000" stroke-width="2" fill="none"/><path d="M1100.45 319.1l-.45.9v-1.12zM1120 521.12l-.45-.23.45-.9z"/><path d="M1080 540h56.82v.44h56.83" stroke="#000" stroke-width="2" fill="none"/><path d="M1194.8 541.44h-1.15v-2h.86z"/><path d="M1080 563.16h115.18" stroke="#000" stroke-width="2" fill="none"/><path d="M1196.13 564.16h-.95v-2h1.04z"/><path d="M1120 600h-40" stroke="#000" stroke-width="2" fill="none"/><path d="M1060 553.6h40v33.2h-40z" fill="none"/><use xlink:href="#a" transform="matrix(1,0,0,1,1065,558.6) translate(1.1111111111111107 26.66666666666667)"/><path d="M1360 560h.8v-52.08h.8" stroke="#000" stroke-width="2" fill="none"/><path d="M1361 560.06l-.17 3-.83-.06v-3zM1362.77 505l-.17 2.98-2-.1.17-3z"/><path d="M1360 422.88V160h-310" stroke="#000" stroke-width="2" fill="none"/><path d="M1361 425.88h-2v-3h2z"/><use xlink:href="#b" transform="matrix(1,0,0,1,1046.7530864197533,129.33333333333334) translate(0 17.77777777777778)"/><use xlink:href="#c" transform="matrix(1,0,0,1,1046.7530864197533,129.33333333333334) translate(83.64197530864197 17.77777777777778)"/><use xlink:href="#d" transform="matrix(1,0,0,1,1046.7530864197533,129.33333333333334) translate(187.22222222222223 17.77777777777778)"/><use xlink:href="#e" transform="matrix(1,0,0,1,1046.7530864197533,129.33333333333334) translate(237.71604938271605 17.77777777777778)"/><path d="M1020 620h160v60h-160z" fill="none"/><use xlink:href="#f" transform="matrix(1,0,0,1,1025,625) translate(6.617592592592587 29.444444444444443)"/><use xlink:href="#g" transform="matrix(1,0,0,1,1025,625) translate(116.43240740740741 29.444444444444443)"/><path d="M1520 422.8h180" stroke="#000" stroke-width="2" fill="none"/><path d="M1520 423.8h-3v-2h3z"/><path d="M1700 422.8l-14.27 4.64v-9.27z" stroke="#000" stroke-width="2"/><use xlink:href="#h" transform="matrix(1,0,0,1,1526.1728395061727,392.1408333333334) translate(0 17.77777777777778)"/><use xlink:href="#i" transform="matrix(1,0,0,1,1526.1728395061727,392.1408333333334) translate(100.98765432098764 17.77777777777778)"/><path d="M160 160h-280" stroke="#000" stroke-width="2" fill="none"/><use xlink:href="#j" transform="matrix(1,0,0,1,-125.25308641975315,129.33333333333334) translate(0 17.77777777777778)"/><use xlink:href="#k" transform="matrix(1,0,0,1,-125.25308641975315,129.33333333333334) translate(76.17283950617282 17.77777777777778)"/><use xlink:href="#l" transform="matrix(1,0,0,1,-125.25308641975315,129.33333333333334) translate(134.19753086419752 17.77777777777778)"/><use xlink:href="#m" transform="matrix(1,0,0,1,-125.25308641975315,129.33333333333334) translate(209.38271604938268 17.77777777777778)"/><path d="M160 240h-280" stroke="#000" stroke-width="2" fill="none"/><use xlink:href="#n" transform="matrix(1,0,0,1,-113.85802469135805,209.33333333333334) translate(0 17.77777777777778)"/><use xlink:href="#k" transform="matrix(1,0,0,1,-113.85802469135805,209.33333333333334) translate(55.55555555555556 17.77777777777778)"/><use xlink:href="#d" transform="matrix(1,0,0,1,-113.85802469135805,209.33333333333334) translate(113.58024691358025 17.77777777777778)"/><use xlink:href="#o" transform="matrix(1,0,0,1,-113.85802469135805,209.33333333333334) translate(164.07407407407408 17.77777777777778)"/><use xlink:href="#p" transform="matrix(1,0,0,1,-113.85802469135805,209.33333333333334) translate(218.33333333333334 17.77777777777778)"/><path d="M860 480h-980" stroke="#000" stroke-width="2" fill="none"/><use xlink:href="#q" transform="matrix(1,0,0,1,-117.04320987654319,449.33333333333337) translate(0 17.77777777777778)"/><use xlink:href="#r" transform="matrix(1,0,0,1,-117.04320987654319,449.33333333333337) translate(107.71604938271604 17.77777777777778)"/><use xlink:href="#l" transform="matrix(1,0,0,1,-117.04320987654319,449.33333333333337) translate(171.1111111111111 17.77777777777778)"/><use xlink:href="#m" transform="matrix(1,0,0,1,-117.04320987654319,449.33333333333337) translate(246.29629629629625 17.77777777777778)"/><path d="M400 320h-520" stroke="#000" stroke-width="2" fill="none"/><g><use xlink:href="#s" transform="matrix(1,0,0,1,-120.01234567901236,289.33133333333336) translate(0 17.77777777777778)"/><use xlink:href="#t" transform="matrix(1,0,0,1,-120.01234567901236,289.33133333333336) translate(63.39506172839506 17.77777777777778)"/><use xlink:href="#d" transform="matrix(1,0,0,1,-120.01234567901236,289.33133333333336) translate(173.88888888888889 17.77777777777778)"/><use xlink:href="#o" transform="matrix(1,0,0,1,-120.01234567901236,289.33133333333336) translate(224.3827160493827 17.77777777777778)"/><use xlink:href="#p" transform="matrix(1,0,0,1,-120.01234567901236,289.33133333333336) translate(278.641975308642 17.77777777777778)"/></g><path d="M400 280v40" stroke="#000" stroke-width="2" fill="none"/><path d="M400 280h-1v-3h1z"/><path d="M640 400h-760" stroke="#000" stroke-width="2" fill="none"/><g><use xlink:href="#u" transform="matrix(1,0,0,1,-116.89506172839506,369.3333333333333) translate(0 17.77777777777778)"/><use xlink:href="#v" transform="matrix(1,0,0,1,-116.89506172839506,369.3333333333333) translate(64.5679012345679 17.77777777777778)"/></g><path d="M640 320v80" stroke="#000" stroke-width="2" fill="none"/><path d="M640 320h-1v-3h1z"/><path d="M860 360v120" stroke="#000" stroke-width="2" fill="none"/><path d="M860 360h-1v-3h1z"/><path d="M280 640h700v84.67H280z" fill="none"/><g><use xlink:href="#w" transform="matrix(1,0,0,1,285,645) translate(66.55555555555554 45.5)"/><use xlink:href="#x" transform="matrix(1,0,0,1,285,645) translate(155.33333333333331 45.5)"/><use xlink:href="#y" transform="matrix(1,0,0,1,285,645) translate(346.22222222222223 45.5)"/><use xlink:href="#z" transform="matrix(1,0,0,1,285,645) translate(528 45.5)"/></g><defs><path d="M33 0v-38h34V0H33" id="A"/><g id="a"><use transform="matrix(0.0925925925925926,0,0,0.0925925925925926,0,0)" xlink:href="#A"/><use transform="matrix(0.0925925925925926,0,0,0.0925925925925926,9.25925925925926,0)" xlink:href="#A"/><use transform="matrix(0.0925925925925926,0,0,0.0925925925925926,18.51851851851852,0)" xlink:href="#A"/></g><path d="M47-170H22l-4-78h33" id="B"/><path d="M30 0v-248h187v28H63v79h144v27H63v87h162V0H30" id="C"/><path d="M117-194c89-4 53 116 60 194h-32v-121c0-31-8-49-39-48C34-167 62-67 57 0H25l-1-190h30c1 10-1 24 2 32 11-22 29-35 61-36" id="D"/><path d="M141-36C126-15 110 5 73 4 37 3 15-17 15-53c-1-64 63-63 125-63 3-35-9-54-41-54-24 1-41 7-42 31l-33-3c5-37 33-52 76-52 45 0 72 20 72 64v82c-1 20 7 32 28 27v20c-31 9-61-2-59-35zM48-53c0 20 12 33 32 33 41-3 63-29 60-74-43 2-92-5-92 41" id="E"/><path d="M115-194c53 0 69 39 70 98 0 66-23 100-70 100C84 3 66-7 56-30L54 0H23l1-261h32v101c10-23 28-34 59-34zm-8 174c40 0 45-34 45-75 0-40-5-75-45-74-42 0-51 32-51 76 0 43 10 73 51 73" id="F"/><path d="M24 0v-261h32V0H24" id="G"/><path d="M100-194c63 0 86 42 84 106H49c0 40 14 67 53 68 26 1 43-12 49-29l28 8c-11 28-37 45-77 45C44 4 14-33 15-96c1-61 26-98 85-98zm52 81c6-60-76-77-97-28-3 7-6 17-6 28h103" id="H"/><g id="b"><use transform="matrix(0.06172839506172839,0,0,0.06172839506172839,0,0)" xlink:href="#B"/><use transform="matrix(0.06172839506172839,0,0,0.06172839506172839,4.197530864197531,0)" xlink:href="#C"/><use transform="matrix(0.06172839506172839,0,0,0.06172839506172839,19.012345679012345,0)" xlink:href="#D"/><use transform="matrix(0.06172839506172839,0,0,0.06172839506172839,31.358024691358025,0)" xlink:href="#E"/><use transform="matrix(0.06172839506172839,0,0,0.06172839506172839,43.7037037037037,0)" xlink:href="#F"/><use transform="matrix(0.06172839506172839,0,0,0.06172839506172839,56.04938271604938,0)" xlink:href="#G"/><use transform="matrix(0.06172839506172839,0,0,0.06172839506172839,60.925925925925924,0)" xlink:href="#H"/><use transform="matrix(0.06172839506172839,0,0,0.06172839506172839,73.27160493827161,0)" xlink:href="#B"/></g><path d="M96-169c-40 0-48 33-48 73s9 75 48 75c24 0 41-14 43-38l32 2c-6 37-31 61-74 61-59 0-76-41-82-99-10-93 101-131 147-64 4 7 5 14 7 22l-32 3c-4-21-16-35-41-35" id="I"/><path d="M100-194c62-1 85 37 85 99 1 63-27 99-86 99S16-35 15-95c0-66 28-99 85-99zM99-20c44 1 53-31 53-75 0-43-8-75-51-75s-53 32-53 75 10 74 51 75" id="J"/><path d="M210-169c-67 3-38 105-44 169h-31v-121c0-29-5-50-35-48C34-165 62-65 56 0H25l-1-190h30c1 10-1 24 2 32 10-44 99-50 107 0 11-21 27-35 58-36 85-2 47 119 55 194h-31v-121c0-29-5-49-35-48" id="K"/><path d="M85-194c31 0 48 13 60 33l-1-100h32l1 261h-30c-2-10 0-23-3-31C134-8 116 4 85 4 32 4 16-35 15-94c0-66 23-100 70-100zm9 24c-40 0-46 34-46 75 0 40 6 74 45 74 42 0 51-32 51-76 0-42-9-74-50-73" id="L"/><g id="c"><use transform="matrix(0.06172839506172839,0,0,0.06172839506172839,0,0)" xlink:href="#I"/><use transform="matrix(0.06172839506172839,0,0,0.06172839506172839,11.11111111111111,0)" xlink:href="#J"/><use transform="matrix(0.06172839506172839,0,0,0.06172839506172839,23.45679012345679,0)" xlink:href="#K"/><use transform="matrix(0.06172839506172839,0,0,0.06172839506172839,41.91358024691358,0)" xlink:href="#K"/><use transform="matrix(0.06172839506172839,0,0,0.06172839506172839,60.37037037037037,0)" xlink:href="#E"/><use transform="matrix(0.06172839506172839,0,0,0.06172839506172839,72.71604938271605,0)" xlink:href="#D"/><use transform="matrix(0.06172839506172839,0,0,0.06172839506172839,85.06172839506173,0)" xlink:href="#L"/></g><path d="M101-234c-31-9-42 10-38 44h38v23H63V0H32v-167H5v-23h27c-7-52 17-82 69-68v24" id="M"/><path d="M114-163C36-179 61-72 57 0H25l-1-190h30c1 12-1 29 2 39 6-27 23-49 58-41v29" id="N"/><g id="d"><use transform="matrix(0.06172839506172839,0,0,0.06172839506172839,0,0)" xlink:href="#M"/><use transform="matrix(0.06172839506172839,0,0,0.06172839506172839,6.172839506172839,0)" xlink:href="#N"/><use transform="matrix(0.06172839506172839,0,0,0.06172839506172839,13.518518518518519,0)" xlink:href="#J"/><use transform="matrix(0.06172839506172839,0,0,0.06172839506172839,25.864197530864196,0)" xlink:href="#K"/></g><path d="M33 0v-248h34V0H33" id="O"/><path d="M140-251c81 0 123 46 123 126C263-46 219 4 140 4 59 4 17-45 17-125s42-126 123-126zm0 227c63 0 89-41 89-101s-29-99-89-99c-61 0-89 39-89 99S79-25 140-24" id="P"/><path d="M212-179c-10-28-35-45-73-45-59 0-87 40-87 99 0 60 29 101 89 101 43 0 62-24 78-52l27 14C228-24 195 4 139 4 59 4 22-46 18-125c-6-104 99-153 187-111 19 9 31 26 39 46" id="Q"/><g id="e"><use transform="matrix(0.06172839506172839,0,0,0.06172839506172839,0,0)" xlink:href="#O"/><use transform="matrix(0.06172839506172839,0,0,0.06172839506172839,6.172839506172839,0)" xlink:href="#P"/><use transform="matrix(0.06172839506172839,0,0,0.06172839506172839,23.456790123456788,0)" xlink:href="#Q"/></g><path d="M101-251c82-7 93 87 43 132L82-64C71-53 59-42 53-27h129V0H18c2-99 128-94 128-182 0-28-16-43-45-43s-46 15-49 41l-32-3c6-41 34-60 81-64" id="R"/><path d="M54-142c48-35 137-8 131 61C196 18 31 33 14-55l32-4c7 23 22 37 52 37 35-1 51-22 54-58 4-55-73-65-99-34H22l8-134h141v27H59" id="S"/><path d="M110-160c48 1 74 30 74 79 0 53-28 85-80 85-65 0-83-55-86-122-5-90 50-162 133-122 14 7 22 21 27 39l-31 6c-5-40-67-38-82-6-9 19-15 44-15 74 11-20 30-34 60-33zm-7 138c34 0 49-23 49-58s-16-56-50-56c-29 0-50 16-49 49 1 36 15 65 50 65" id="T"/><path d="M101-251c68 0 85 55 85 127S166 4 100 4C33 4 14-52 14-124c0-73 17-127 87-127zm-1 229c47 0 54-49 54-102s-4-102-53-102c-51 0-55 48-55 102 0 53 5 102 54 102" id="U"/><path d="M16-82v-28h88v28H16" id="V"/><path d="M24-231v-30h32v30H24zM24 0v-190h32V0H24" id="W"/><path d="M115-194c55 1 70 41 70 98S169 2 115 4C84 4 66-9 55-30l1 105H24l-1-265h31l2 30c10-21 28-34 59-34zm-8 174c40 0 45-34 45-75s-6-73-45-74c-42 0-51 32-51 76 0 43 10 73 51 73" id="X"/><path d="M84 4C-5 8 30-112 23-190h32v120c0 31 7 50 39 49 72-2 45-101 50-169h31l1 190h-30c-1-10 1-25-2-33-11 22-28 36-60 37" id="Y"/><path d="M59-47c-2 24 18 29 38 22v24C64 9 27 4 27-40v-127H5v-23h24l9-43h21v43h35v23H59v120" id="Z"/><g id="f"><use transform="matrix(0.06172839506172839,0,0,0.06172839506172839,0,0)" xlink:href="#R"/><use transform="matrix(0.06172839506172839,0,0,0.06172839506172839,12.345679012345679,0)" xlink:href="#S"/><use transform="matrix(0.06172839506172839,0,0,0.06172839506172839,24.691358024691358,0)" xlink:href="#T"/><use transform="matrix(0.06172839506172839,0,0,0.06172839506172839,37.03703703703704,0)" xlink:href="#U"/><use transform="matrix(0.06172839506172839,0,0,0.06172839506172839,49.382716049382715,0)" xlink:href="#V"/><use transform="matrix(0.06172839506172839,0,0,0.06172839506172839,56.72839506172839,0)" xlink:href="#W"/><use transform="matrix(0.06172839506172839,0,0,0.06172839506172839,61.60493827160494,0)" xlink:href="#D"/><use transform="matrix(0.06172839506172839,0,0,0.06172839506172839,73.95061728395062,0)" xlink:href="#X"/><use transform="matrix(0.06172839506172839,0,0,0.06172839506172839,86.2962962962963,0)" xlink:href="#Y"/><use transform="matrix(0.06172839506172839,0,0,0.06172839506172839,98.64197530864199,0)" xlink:href="#Z"/></g><path d="M233-177c-1 41-23 64-60 70L243 0h-38l-65-103H63V0H30v-248c88 3 205-21 203 71zM63-129c60-2 137 13 137-47 0-61-80-42-137-45v92" id="aa"/><g id="g"><use transform="matrix(0.05,0,0,0.05,0,0)" xlink:href="#P"/><use transform="matrix(0.05,0,0,0.05,14,0)" xlink:href="#aa"/></g><path d="M240 0l2-218c-23 76-54 145-80 218h-23L58-218 59 0H30v-248h44l77 211c21-75 51-140 76-211h43V0h-30" id="ab"/><path d="M177-190C167-65 218 103 67 71c-23-6-38-20-44-43l32-5c15 47 100 32 89-28v-30C133-14 115 1 83 1 29 1 15-40 15-95c0-56 16-97 71-98 29-1 48 16 59 35 1-10 0-23 2-32h30zM94-22c36 0 50-32 50-73 0-42-14-75-50-75-39 0-46 34-46 75s6 73 46 73" id="ac"/><g id="h"><use transform="matrix(0.06172839506172839,0,0,0.06172839506172839,0,0)" xlink:href="#ab"/><use transform="matrix(0.06172839506172839,0,0,0.06172839506172839,18.456790123456788,0)" xlink:href="#W"/><use transform="matrix(0.06172839506172839,0,0,0.06172839506172839,23.33333333333333,0)" xlink:href="#Z"/><use transform="matrix(0.06172839506172839,0,0,0.06172839506172839,29.506172839506167,0)" xlink:href="#W"/><use transform="matrix(0.06172839506172839,0,0,0.06172839506172839,34.38271604938271,0)" xlink:href="#ac"/><use transform="matrix(0.06172839506172839,0,0,0.06172839506172839,46.728395061728385,0)" xlink:href="#E"/><use transform="matrix(0.06172839506172839,0,0,0.06172839506172839,59.07407407407406,0)" xlink:href="#Z"/><use transform="matrix(0.06172839506172839,0,0,0.06172839506172839,65.2469135802469,0)" xlink:href="#W"/><use transform="matrix(0.06172839506172839,0,0,0.06172839506172839,70.12345679012344,0)" xlink:href="#J"/><use transform="matrix(0.06172839506172839,0,0,0.06172839506172839,82.46913580246913,0)" xlink:href="#D"/></g><g id="i"><use transform="matrix(0.06172839506172839,0,0,0.06172839506172839,0,0)" xlink:href="#P"/><use transform="matrix(0.06172839506172839,0,0,0.06172839506172839,17.28395061728395,0)" xlink:href="#Y"/><use transform="matrix(0.06172839506172839,0,0,0.06172839506172839,29.629629629629626,0)" xlink:href="#Z"/><use transform="matrix(0.06172839506172839,0,0,0.06172839506172839,35.80246913580247,0)" xlink:href="#X"/><use transform="matrix(0.06172839506172839,0,0,0.06172839506172839,48.148148148148145,0)" xlink:href="#Y"/><use transform="matrix(0.06172839506172839,0,0,0.06172839506172839,60.49382716049382,0)" xlink:href="#Z"/></g><path d="M109-170H84l-4-78h32zm-65 0H19l-4-78h33" id="ad"/><path d="M143 4C61 4 22-44 18-125c-5-107 100-154 193-111 17 8 29 25 37 43l-32 9c-13-25-37-40-76-40-61 0-88 39-88 99 0 61 29 100 91 101 35 0 62-11 79-27v-45h-74v-28h105v86C228-13 192 4 143 4" id="ae"/><g id="j"><use transform="matrix(0.06172839506172839,0,0,0.06172839506172839,0,0)" xlink:href="#ad"/><use transform="matrix(0.06172839506172839,0,0,0.06172839506172839,7.8395061728395055,0)" xlink:href="#ae"/><use transform="matrix(0.06172839506172839,0,0,0.06172839506172839,25.123456790123456,0)" xlink:href="#J"/><use transform="matrix(0.06172839506172839,0,0,0.06172839506172839,37.46913580246913,0)" xlink:href="#J"/><use transform="matrix(0.06172839506172839,0,0,0.06172839506172839,49.81481481481481,0)" xlink:href="#L"/><use transform="matrix(0.06172839506172839,0,0,0.06172839506172839,62.16049382716049,0)" xlink:href="#ad"/></g><path d="M185-189c-5-48-123-54-124 2 14 75 158 14 163 119 3 78-121 87-175 55-17-10-28-26-33-46l33-7c5 56 141 63 141-1 0-78-155-14-162-118-5-82 145-84 179-34 5 7 8 16 11 25" id="af"/><g id="k"><use transform="matrix(0.06172839506172839,0,0,0.06172839506172839,0,0)" xlink:href="#af"/><use transform="matrix(0.06172839506172839,0,0,0.06172839506172839,14.814814814814813,0)" xlink:href="#Z"/><use transform="matrix(0.06172839506172839,0,0,0.06172839506172839,20.98765432098765,0)" xlink:href="#E"/><use transform="matrix(0.06172839506172839,0,0,0.06172839506172839,33.33333333333333,0)" xlink:href="#Z"/><use transform="matrix(0.06172839506172839,0,0,0.06172839506172839,39.50617283950617,0)" xlink:href="#H"/></g><path d="M160-131c35 5 61 23 61 61C221 17 115-2 30 0v-248c76 3 177-17 177 60 0 33-19 50-47 57zm-97-11c50-1 110 9 110-42 0-47-63-36-110-37v79zm0 115c55-2 124 14 124-45 0-56-70-42-124-44v89" id="ag"/><g id="l"><use transform="matrix(0.06172839506172839,0,0,0.06172839506172839,0,0)" xlink:href="#ag"/><use transform="matrix(0.06172839506172839,0,0,0.06172839506172839,14.814814814814813,0)" xlink:href="#W"/><use transform="matrix(0.06172839506172839,0,0,0.06172839506172839,19.691358024691354,0)" xlink:href="#Z"/><use transform="matrix(0.06172839506172839,0,0,0.06172839506172839,25.864197530864192,0)" xlink:href="#K"/><use transform="matrix(0.06172839506172839,0,0,0.06172839506172839,44.32098765432098,0)" xlink:href="#E"/><use transform="matrix(0.06172839506172839,0,0,0.06172839506172839,56.66666666666666,0)" xlink:href="#X"/></g><path d="M179-190L93 31C79 59 56 82 12 73V49c39 6 53-20 64-50L1-190h34L92-34l54-156h33" id="ah"/><g id="m"><use transform="matrix(0.06172839506172839,0,0,0.06172839506172839,0,0)" xlink:href="#C"/><use transform="matrix(0.06172839506172839,0,0,0.06172839506172839,14.814814814814813,0)" xlink:href="#D"/><use transform="matrix(0.06172839506172839,0,0,0.06172839506172839,27.160493827160494,0)" xlink:href="#Z"/><use transform="matrix(0.06172839506172839,0,0,0.06172839506172839,33.333333333333336,0)" xlink:href="#N"/><use transform="matrix(0.06172839506172839,0,0,0.06172839506172839,40.67901234567901,0)" xlink:href="#ah"/></g><g id="n"><use transform="matrix(0.06172839506172839,0,0,0.06172839506172839,0,0)" xlink:href="#O"/><use transform="matrix(0.06172839506172839,0,0,0.06172839506172839,6.172839506172839,0)" xlink:href="#D"/><use transform="matrix(0.06172839506172839,0,0,0.06172839506172839,18.51851851851852,0)" xlink:href="#X"/><use transform="matrix(0.06172839506172839,0,0,0.06172839506172839,30.864197530864196,0)" xlink:href="#Y"/><use transform="matrix(0.06172839506172839,0,0,0.06172839506172839,43.20987654320987,0)" xlink:href="#Z"/></g><path d="M205 0l-28-72H64L36 0H1l101-248h38L239 0h-34zm-38-99l-47-123c-12 45-31 82-46 123h93" id="ai"/><path d="M140-251c81 0 123 46 123 126C263-53 228-8 163 1c7 30 30 48 69 40v23c-55 16-95-15-103-61C56-3 17-48 17-125c0-80 42-126 123-126zm0 227c63 0 89-41 89-101s-29-99-89-99c-61 0-89 39-89 99S79-25 140-24" id="aj"/><g id="o"><use transform="matrix(0.06172839506172839,0,0,0.06172839506172839,0,0)" xlink:href="#ai"/><use transform="matrix(0.06172839506172839,0,0,0.06172839506172839,14.814814814814813,0)" xlink:href="#Q"/><use transform="matrix(0.06172839506172839,0,0,0.06172839506172839,30.80246913580247,0)" xlink:href="#aj"/></g><g id="p"><use transform="matrix(0.06172839506172839,0,0,0.06172839506172839,0,0)" xlink:href="#D"/><use transform="matrix(0.06172839506172839,0,0,0.06172839506172839,12.345679012345679,0)" xlink:href="#J"/><use transform="matrix(0.06172839506172839,0,0,0.06172839506172839,24.691358024691358,0)" xlink:href="#L"/><use transform="matrix(0.06172839506172839,0,0,0.06172839506172839,37.03703703703704,0)" xlink:href="#H"/></g><g id="q"><use transform="matrix(0.06172839506172839,0,0,0.06172839506172839,0,0)" xlink:href="#ad"/><use transform="matrix(0.06172839506172839,0,0,0.06172839506172839,7.8395061728395055,0)" xlink:href="#O"/><use transform="matrix(0.06172839506172839,0,0,0.06172839506172839,14.012345679012345,0)" xlink:href="#K"/><use transform="matrix(0.06172839506172839,0,0,0.06172839506172839,32.46913580246913,0)" xlink:href="#X"/><use transform="matrix(0.06172839506172839,0,0,0.06172839506172839,44.81481481481481,0)" xlink:href="#J"/><use transform="matrix(0.06172839506172839,0,0,0.06172839506172839,57.16049382716049,0)" xlink:href="#N"/><use transform="matrix(0.06172839506172839,0,0,0.06172839506172839,64.50617283950616,0)" xlink:href="#Z"/><use transform="matrix(0.06172839506172839,0,0,0.06172839506172839,70.679012345679,0)" xlink:href="#E"/><use transform="matrix(0.06172839506172839,0,0,0.06172839506172839,83.02469135802468,0)" xlink:href="#D"/><use transform="matrix(0.06172839506172839,0,0,0.06172839506172839,95.37037037037037,0)" xlink:href="#Z"/></g><g id="r"><use transform="matrix(0.06172839506172839,0,0,0.06172839506172839,0,0)" xlink:href="#O"/><use transform="matrix(0.06172839506172839,0,0,0.06172839506172839,6.172839506172839,0)" xlink:href="#D"/><use transform="matrix(0.06172839506172839,0,0,0.06172839506172839,18.51851851851852,0)" xlink:href="#X"/><use transform="matrix(0.06172839506172839,0,0,0.06172839506172839,30.864197530864196,0)" xlink:href="#Y"/><use transform="matrix(0.06172839506172839,0,0,0.06172839506172839,43.20987654320987,0)" xlink:href="#Z"/><use transform="matrix(0.06172839506172839,0,0,0.06172839506172839,49.382716049382715,0)" xlink:href="#ad"/></g><g id="s"><use transform="matrix(0.06172839506172839,0,0,0.06172839506172839,0,0)" xlink:href="#ad"/><use transform="matrix(0.06172839506172839,0,0,0.06172839506172839,7.8395061728395055,0)" xlink:href="#O"/><use transform="matrix(0.06172839506172839,0,0,0.06172839506172839,14.012345679012345,0)" xlink:href="#D"/><use transform="matrix(0.06172839506172839,0,0,0.06172839506172839,26.358024691358025,0)" xlink:href="#X"/><use transform="matrix(0.06172839506172839,0,0,0.06172839506172839,38.7037037037037,0)" xlink:href="#Y"/><use transform="matrix(0.06172839506172839,0,0,0.06172839506172839,51.04938271604938,0)" xlink:href="#Z"/></g><path d="M127-220V0H93v-220H8v-28h204v28h-85" id="ak"/><path d="M135-143c-3-34-86-38-87 0 15 53 115 12 119 90S17 21 10-45l28-5c4 36 97 45 98 0-10-56-113-15-118-90-4-57 82-63 122-42 12 7 21 19 24 35" id="al"/><g id="t"><use transform="matrix(0.06172839506172839,0,0,0.06172839506172839,0,0)" xlink:href="#ak"/><use transform="matrix(0.06172839506172839,0,0,0.06172839506172839,12.716049382716047,0)" xlink:href="#N"/><use transform="matrix(0.06172839506172839,0,0,0.06172839506172839,20.061728395061728,0)" xlink:href="#E"/><use transform="matrix(0.06172839506172839,0,0,0.06172839506172839,32.407407407407405,0)" xlink:href="#D"/><use transform="matrix(0.06172839506172839,0,0,0.06172839506172839,44.75308641975308,0)" xlink:href="#al"/><use transform="matrix(0.06172839506172839,0,0,0.06172839506172839,55.86419753086419,0)" xlink:href="#W"/><use transform="matrix(0.06172839506172839,0,0,0.06172839506172839,60.74074074074073,0)" xlink:href="#Z"/><use transform="matrix(0.06172839506172839,0,0,0.06172839506172839,66.91358024691357,0)" xlink:href="#W"/><use transform="matrix(0.06172839506172839,0,0,0.06172839506172839,71.79012345679011,0)" xlink:href="#J"/><use transform="matrix(0.06172839506172839,0,0,0.06172839506172839,84.1358024691358,0)" xlink:href="#D"/><use transform="matrix(0.06172839506172839,0,0,0.06172839506172839,96.48148148148148,0)" xlink:href="#ad"/></g><g id="u"><use transform="matrix(0.06172839506172839,0,0,0.06172839506172839,0,0)" xlink:href="#ad"/><use transform="matrix(0.06172839506172839,0,0,0.06172839506172839,7.8395061728395055,0)" xlink:href="#af"/><use transform="matrix(0.06172839506172839,0,0,0.06172839506172839,22.65432098765432,0)" xlink:href="#Z"/><use transform="matrix(0.06172839506172839,0,0,0.06172839506172839,28.827160493827158,0)" xlink:href="#E"/><use transform="matrix(0.06172839506172839,0,0,0.06172839506172839,41.172839506172835,0)" xlink:href="#G"/><use transform="matrix(0.06172839506172839,0,0,0.06172839506172839,46.04938271604938,0)" xlink:href="#H"/></g><g id="v"><use transform="matrix(0.06172839506172839,0,0,0.06172839506172839,0,0)" xlink:href="#O"/><use transform="matrix(0.06172839506172839,0,0,0.06172839506172839,6.172839506172839,0)" xlink:href="#D"/><use transform="matrix(0.06172839506172839,0,0,0.06172839506172839,18.51851851851852,0)" xlink:href="#X"/><use transform="matrix(0.06172839506172839,0,0,0.06172839506172839,30.864197530864196,0)" xlink:href="#Y"/><use transform="matrix(0.06172839506172839,0,0,0.06172839506172839,43.20987654320987,0)" xlink:href="#Z"/><use transform="matrix(0.06172839506172839,0,0,0.06172839506172839,49.382716049382715,0)" xlink:href="#ad"/></g><path d="M63-220v92h138v28H63V0H30v-248h175v28H63" id="am"/><g id="w"><use transform="matrix(0.1111111111111111,0,0,0.1111111111111111,0,0)" xlink:href="#am"/><use transform="matrix(0.1111111111111111,0,0,0.1111111111111111,24.333333333333332,0)" xlink:href="#E"/><use transform="matrix(0.1111111111111111,0,0,0.1111111111111111,46.55555555555556,0)" xlink:href="#al"/><use transform="matrix(0.1111111111111111,0,0,0.1111111111111111,66.55555555555556,0)" xlink:href="#Z"/></g><path d="M30-248c87 1 191-15 191 75 0 78-77 80-158 76V0H30v-248zm33 125c57 0 124 11 124-50 0-59-68-47-124-48v98" id="an"/><g id="x"><use transform="matrix(0.1111111111111111,0,0,0.1111111111111111,0,0)" xlink:href="#an"/><use transform="matrix(0.1111111111111111,0,0,0.1111111111111111,26.666666666666664,0)" xlink:href="#N"/><use transform="matrix(0.1111111111111111,0,0,0.1111111111111111,39.888888888888886,0)" xlink:href="#J"/><use transform="matrix(0.1111111111111111,0,0,0.1111111111111111,62.11111111111111,0)" xlink:href="#Z"/><use transform="matrix(0.1111111111111111,0,0,0.1111111111111111,73.22222222222221,0)" xlink:href="#H"/><use transform="matrix(0.1111111111111111,0,0,0.1111111111111111,95.44444444444443,0)" xlink:href="#I"/><use transform="matrix(0.1111111111111111,0,0,0.1111111111111111,115.44444444444444,0)" xlink:href="#Z"/><use transform="matrix(0.1111111111111111,0,0,0.1111111111111111,126.55555555555554,0)" xlink:href="#W"/><use transform="matrix(0.1111111111111111,0,0,0.1111111111111111,135.33333333333331,0)" xlink:href="#J"/><use transform="matrix(0.1111111111111111,0,0,0.1111111111111111,157.55555555555554,0)" xlink:href="#D"/></g><g id="y"><use transform="matrix(0.1111111111111111,0,0,0.1111111111111111,0,0)" xlink:href="#ab"/><use transform="matrix(0.1111111111111111,0,0,0.1111111111111111,33.22222222222222,0)" xlink:href="#W"/><use transform="matrix(0.1111111111111111,0,0,0.1111111111111111,42,0)" xlink:href="#Z"/><use transform="matrix(0.1111111111111111,0,0,0.1111111111111111,53.111111111111114,0)" xlink:href="#W"/><use transform="matrix(0.1111111111111111,0,0,0.1111111111111111,61.8888888888889,0)" xlink:href="#ac"/><use transform="matrix(0.1111111111111111,0,0,0.1111111111111111,84.11111111111111,0)" xlink:href="#E"/><use transform="matrix(0.1111111111111111,0,0,0.1111111111111111,106.33333333333334,0)" xlink:href="#Z"/><use transform="matrix(0.1111111111111111,0,0,0.1111111111111111,117.44444444444446,0)" xlink:href="#W"/><use transform="matrix(0.1111111111111111,0,0,0.1111111111111111,126.22222222222224,0)" xlink:href="#J"/><use transform="matrix(0.1111111111111111,0,0,0.1111111111111111,148.44444444444446,0)" xlink:href="#D"/></g><path d="M30 0v-248h33v221h125V0H30" id="ao"/><g id="z"><use transform="matrix(0.1111111111111111,0,0,0.1111111111111111,0,0)" xlink:href="#ao"/><use transform="matrix(0.1111111111111111,0,0,0.1111111111111111,22.22222222222222,0)" xlink:href="#J"/><use transform="matrix(0.1111111111111111,0,0,0.1111111111111111,44.44444444444444,0)" xlink:href="#ac"/><use transform="matrix(0.1111111111111111,0,0,0.1111111111111111,66.66666666666666,0)" xlink:href="#W"/><use transform="matrix(0.1111111111111111,0,0,0.1111111111111111,75.44444444444443,0)" xlink:href="#I"/></g></defs></g></svg>