<?xml version="1.0" encoding="utf-8"?>
<!-- Generator: Adobe Illustrator 13.0.1, SVG Export Plug-In . SVG Version: 6.00 Build 14948)  -->
<!DOCTYPE svg PUBLIC "-//W3C//DTD SVG 1.1//EN" "http://www.w3.org/Graphics/SVG/1.1/DTD/svg11.dtd">
<svg version="1.1" id="레이어_1" xmlns="http://www.w3.org/2000/svg" xmlns:xlink="http://www.w3.org/1999/xlink" x="0px"
	 y="0px" width="83px" height="119px" viewBox="0 0 83 119" enable-background="new 0 0 83 119" xml:space="preserve">
<rect x="33.99" y="0.86" fill="#666666" width="14.75" height="2"/>
<polyline fill="#666666" stroke="#000000" stroke-width="2" points="48.632,1.855 81.309,1.855 81.309,112.896 1.309,112.896 
	1.309,1.855 34.292,1.855 "/>
<polyline fill="#666666" stroke="#000000" stroke-width="2" points="48.453,7.354 75.619,7.354 75.619,112.68 7,112.68 7,7.354 
	34.233,7.354 "/>
<rect x="15.309" y="52.097" fill="none" stroke="#000000" width="52.001" height="60"/>
<rect x="1.309" y="112.73" fill="#666666" stroke="#000000" stroke-width="2" width="80" height="4"/>
<rect x="36.157" y="101.993" fill="#666666" stroke="#000000" width="10.305" height="10.309"/>
<polygon fill="#666666" stroke="#000000" points="64.299,56.302 64.299,72.861 51.588,85.57 51.588,102.061 31.031,102.061 
	31.031,85.57 18.319,72.861 18.319,56.302 "/>
</svg>
