<?xml version="1.0" encoding="utf-8"?>
<!-- Generator: Adobe Illustrator 13.0.1, SVG Export Plug-In . SVG Version: 6.00 Build 14948)  -->
<!DOCTYPE svg PUBLIC "-//W3C//DTD SVG 1.1//EN" "http://www.w3.org/Graphics/SVG/1.1/DTD/svg11.dtd">
<svg version="1.1" id="레이어_1" xmlns="http://www.w3.org/2000/svg" xmlns:xlink="http://www.w3.org/1999/xlink" x="0px"
	 y="0px" width="279px" height="85px" viewBox="0 0 279 85" enable-background="new 0 0 279 85" xml:space="preserve">
<rect x="170.005" y="15.458" fill="#666666" stroke="#000000" stroke-width="2" width="4.592" height="54.448"/>
<rect x="5.725" y="1.682" fill="#666666" stroke="#000000" stroke-width="2" width="164" height="82"/>
<rect x="6.055" y="6.767" fill="#666666" stroke="#000000" stroke-width="2" width="158.098" height="71.832"/>
<rect x="6.055" y="16.032" fill="#666666" stroke="#000000" stroke-width="2" width="64.167" height="53.3"/>
<rect x="169.595" y="22.182" fill="#666666" stroke="#000000" stroke-width="2" width="24.6" height="41"/>
<rect x="193.824" y="18.083" fill="#666666" stroke="#000000" stroke-width="2" width="82" height="49.2"/>
<rect x="1.796" y="1.682" fill="#666666" stroke="#000000" stroke-width="2" width="4.099" height="82"/>
<rect x="6.055" y="31.981" fill="#666666" stroke="#000000" stroke-width="2" width="10.824" height="21.402"/>
<rect x="6.055" y="37.401" fill="#666666" stroke="#000000" stroke-width="2" width="10.566" height="10.563"/>
<polygon fill="#666666" stroke="#000000" stroke-width="2" points="63.735,66.247 46.761,66.247 33.733,53.219 16.833,53.219 
	16.833,32.147 33.733,32.147 46.761,19.118 63.735,19.118 "/>
<rect x="197.557" y="23.002" fill="#666666" stroke="#000000" stroke-width="2" width="73.801" height="39.36"/>
<rect x="163.984" y="26.938" fill="#666666" stroke="#000000" stroke-width="2" width="33.456" height="31.488"/>
</svg>
