<?xml version="1.0" encoding="utf-8"?>
<!-- Generator: Adobe Illustrator 13.0.1, SVG Export Plug-In . SVG Version: 6.00 Build 14948)  -->
<!DOCTYPE svg PUBLIC "-//W3C//DTD SVG 1.1//EN" "http://www.w3.org/Graphics/SVG/1.1/DTD/svg11.dtd">
<svg version="1.1" id="레이어_1" xmlns="http://www.w3.org/2000/svg" xmlns:xlink="http://www.w3.org/1999/xlink" x="0px"
	 y="0px" width="150px" height="150px" viewBox="0 0 150 150" enable-background="new 0 0 150 150" xml:space="preserve">
<rect x="1.513" y="68.251" fill="#666666" stroke="#000000" width="6.54" height="19.617"/>
<rect x="4.129" y="62.497" fill="#666666" stroke="#000000" width="5.753" height="31.126"/>
<rect x="8.576" y="7.697" fill="#B2B2B2" stroke="#000000" width="9.939" height="140.726"/>
<rect x="10.098" y="41.963" fill="#666666" stroke="#000000" width="9.612" height="72.193"/>
<circle fill="#CCCCCC" stroke="#000000" cx="75.948" cy="78.06" r="47.083"/>
<rect x="133.057" y="7.697" fill="#B2B2B2" stroke="#000000" width="9.94" height="140.726"/>
<rect x="19.671" y="41.963" fill="#666666" stroke="#000000" width="9.612" height="72.193"/>
<rect x="23.928" y="53.472" fill="#E6E6E6" stroke="#000000" width="27.727" height="49.174"/>
<rect x="100.124" y="53.472" fill="#E6E6E6" stroke="#000000" width="27.727" height="49.174"/>
<rect x="59.338" y="16.822" fill="#808080" stroke="#000000" width="33.218" height="31.127"/>
<rect x="49.268" y="9.89" fill="#CCCCCC" stroke="#000000" width="53.36" height="7.585"/>
<rect x="49.268" y="1.782" fill="#666666" stroke="#000000" width="53.36" height="7.585"/>
<rect x="122.128" y="41.963" fill="#666666" stroke="#000000" width="9.613" height="72.193"/>
<rect x="139.358" y="63.542" fill="#666666" stroke="#000000" width="9.154" height="29.035"/>
<rect x="18.533" y="19.824" fill="#B2B2B2" stroke="#000000" width="114.568" height="9.417"/>
<rect x="18.598" y="127.068" fill="#B2B2B2" stroke="#000000" width="114.503" height="9.416"/>
<circle fill="#CCCCCC" stroke="#000000" cx="75.948" cy="78.06" r="34.789"/>
<circle fill="#CCCCCC" stroke="#000000" cx="75.947" cy="78.06" r="21.344"/>
<rect x="131.859" y="41.963" fill="#666666" stroke="#000000" width="9.612" height="72.193"/>
<rect x="8.652" y="68.251" fill="#666666" stroke="#000000" width="15.224" height="19.617"/>
</svg>
