<?xml version="1.0" encoding="utf-8"?>
<!-- Generator: Adobe Illustrator 13.0.1, SVG Export Plug-In . SVG Version: 6.00 Build 14948)  -->
<!DOCTYPE svg PUBLIC "-//W3C//DTD SVG 1.1//EN" "http://www.w3.org/Graphics/SVG/1.1/DTD/svg11.dtd">
<svg version="1.1" id="레이어_1" xmlns="http://www.w3.org/2000/svg" xmlns:xlink="http://www.w3.org/1999/xlink" x="0px"
	 y="0px" width="149px" height="44px" viewBox="0 0 149 44" enable-background="new 0 0 149 44" xml:space="preserve">
<polygon fill="#808080" stroke="#4D4D4D" points="23.929,42.535 23.829,42.535 0.825,21.535 23.829,0.535 23.929,0.535 
	23.613,0.535 124.069,0.535 125.171,0.535 148.175,21.535 125.171,42.535 124.069,42.535 24.615,42.535 "/>
<polyline fill="#CCCCCC" points="25.355,5.016 122.759,5.016 123.821,5.029 143.055,21.465 123.774,39.721 122.759,39.721 
	25.355,39.721 "/>
<g>
	<polyline fill="#E6E6E6" points="142.52,21.458 147.45,21.521 125.059,42.025 124.182,38.067 	"/>
</g>
<g>
	<polyline fill="#B2B2B2" points="142.469,21.528 123.629,5.013 125.022,1.05 147.45,21.521 	"/>
</g>
<polygon fill="#E6E6E6" points="125.074,42.097 24.04,42.054 24.04,38.054 124.994,38.054 "/>
<polyline fill="#CCCCCC" points="25.916,38.005 24.871,37.991 5.945,21.604 24.917,4.993 25.916,4.993 "/>
<g>
	<polyline fill="#808080" points="6.48,21.612 1.55,21.55 23.941,1.045 24.818,5.003 	"/>
</g>
<g>
	<polyline fill="#B2B2B2" points="6.547,21.547 25.388,38.063 23.993,42.025 1.565,21.555 	"/>
</g>
</svg>
