<?xml version="1.0" encoding="utf-8"?>
<!-- Generator: Adobe Illustrator 13.0.1, SVG Export Plug-In . SVG Version: 6.00 Build 14948)  -->
<!DOCTYPE svg PUBLIC "-//W3C//DTD SVG 1.1//EN" "http://www.w3.org/Graphics/SVG/1.1/DTD/svg11.dtd">
<svg version="1.1" id="레이어_1" xmlns="http://www.w3.org/2000/svg" xmlns:xlink="http://www.w3.org/1999/xlink" x="0px"
	 y="0px" width="149px" height="44px" viewBox="0 0 149 44" enable-background="new 0 0 149 44" xml:space="preserve">
<polygon fill="#E6E6E6" stroke="#4D4D4D" points="23.929,42.536 23.829,42.536 0.825,21.534 23.829,0.534 23.929,0.534 
	23.613,0.534 124.069,0.534 125.171,0.534 148.175,21.534 125.171,42.536 124.069,42.536 24.615,42.536 "/>
<polyline fill="#CCCCCC" points="25.355,5.015 122.759,5.015 123.821,5.028 143.055,21.464 123.774,39.722 122.759,39.722 
	25.355,39.722 "/>
<g>
	<polyline fill="#666666" points="142.52,21.457 147.45,21.52 125.059,42.026 124.182,38.068 	"/>
</g>
<g>
	<polyline fill="#B2B2B2" points="142.469,21.527 123.629,5.012 125.022,1.049 147.45,21.52 	"/>
</g>
<polygon fill="#666666" points="125.074,42.098 24.04,42.055 24.04,38.055 124.994,38.055 "/>
<polyline fill="#CCCCCC" points="25.916,38.006 24.871,37.992 5.945,21.604 24.917,4.992 25.916,4.992 "/>
<g>
	<polyline fill="#E6E6E6" points="6.48,21.611 1.55,21.549 23.941,1.044 24.818,5.002 	"/>
</g>
<g>
	<polyline fill="#B2B2B2" points="6.547,21.546 25.388,38.063 23.993,42.026 1.565,21.554 	"/>
</g>
<line fill="#E6E6E6" x1="24.006" y1="5.016" x2="23.926" y2="0.973"/>
</svg>
