<?xml version="1.0" encoding="utf-8"?>
<!-- Generator: Adobe Illustrator 13.0.1, SVG Export Plug-In . SVG Version: 6.00 Build 14948)  -->
<!DOCTYPE svg PUBLIC "-//W3C//DTD SVG 1.1//EN" "http://www.w3.org/Graphics/SVG/1.1/DTD/svg11.dtd">
<svg version="1.1" id="레이어_1" xmlns="http://www.w3.org/2000/svg" xmlns:xlink="http://www.w3.org/1999/xlink" x="0px"
	 y="0px" width="40px" height="340px" viewBox="0 0 40 340" enable-background="new 0 0 40 340" xml:space="preserve">
<linearGradient id="SVGID_1_" gradientUnits="userSpaceOnUse" x1="292.752" y1="-123.5288" x2="302.5098" y2="-123.5288" gradientTransform="matrix(1 0 0 -1 -277.6602 88.04)">
	<stop  offset="0" style="stop-color:#333333"/>
	<stop  offset="0.4945" style="stop-color:#808080"/>
	<stop  offset="1" style="stop-color:#333333"/>
</linearGradient>
<rect x="15.092" y="115.497" fill="url(#SVGID_1_)" stroke="#000000" width="9.758" height="192.144"/>
<rect x="0.756" y="1.572" fill="#B2B2B2" stroke="#000000" width="38.428" height="96.071"/>
<rect x="0.756" y="97.322" fill="#B2B2B2" stroke="#000000" width="38.428" height="9.607"/>
<rect x="0.756" y="106.29" fill="#998675" stroke="#000000" width="38.428" height="9.607"/>
<circle fill="#736357" stroke="#000000" cx="19.971" cy="74.187" r="14.411"/>
<circle fill="#736357" stroke="#000000" cx="19.971" cy="25.19" r="14.411"/>
<linearGradient id="SVGID_2_" gradientUnits="userSpaceOnUse" x1="-412.6738" y1="-309.3286" x2="-412.6738" y2="-271.6538" gradientTransform="matrix(0 -1 -1 0 -270.3262 -92.624)">
	<stop  offset="0" style="stop-color:#333333"/>
	<stop  offset="0.4945" style="stop-color:#808080"/>
	<stop  offset="1" style="stop-color:#333333"/>
</linearGradient>
<rect x="1.328" y="305.639" fill="url(#SVGID_2_)" stroke="#000000" width="37.675" height="28.821"/>
<line fill="none" stroke="#000000" x1="1.328" y1="320.049" x2="38.756" y2="320.049"/>
<line fill="none" stroke="#000000" x1="0.756" y1="49.607" x2="39.186" y2="49.607"/>
<circle fill="#333333" cx="4.53" cy="6.935" r="2.402"/>
<circle fill="#333333" cx="34.792" cy="6.935" r="2.402"/>
<circle fill="#333333" cx="4.53" cy="43.762" r="2.402"/>
<circle fill="#333333" cx="34.792" cy="43.762" r="2.402"/>
<circle fill="#333333" cx="4.53" cy="55.291" r="2.402"/>
<circle fill="#333333" cx="34.792" cy="55.291" r="2.402"/>
<circle fill="#333333" cx="4.53" cy="92.118" r="2.402"/>
<circle fill="#333333" cx="34.792" cy="92.118" r="2.402"/>
</svg>
