<?xml version="1.0" encoding="utf-8"?>
<!-- Generator: Adobe Illustrator 13.0.1, SVG Export Plug-In . SVG Version: 6.00 Build 14948)  -->
<!DOCTYPE svg PUBLIC "-//W3C//DTD SVG 1.1//EN" "http://www.w3.org/Graphics/SVG/1.1/DTD/svg11.dtd">
<svg version="1.1" id="레이어_1" xmlns="http://www.w3.org/2000/svg" xmlns:xlink="http://www.w3.org/1999/xlink" x="0px"
	 y="0px" width="360px" height="63px" viewBox="0 0 360 63" enable-background="new 0 0 360 63" xml:space="preserve">
<linearGradient id="SVGID_1_" gradientUnits="userSpaceOnUse" x1="415.1035" y1="-325.3818" x2="415.1035" y2="-315.4399" gradientTransform="matrix(1 0 0 -1 -256.1602 -298.46)">
	<stop  offset="0" style="stop-color:#333333"/>
	<stop  offset="0.4945" style="stop-color:#808080"/>
	<stop  offset="1" style="stop-color:#333333"/>
</linearGradient>
<rect x="3.089" y="16.98" fill="url(#SVGID_1_)" stroke="#000000" width="311.709" height="9.942"/>
<rect x="306.795" y="7.268" fill="#333333" stroke="#000000" width="8.484" height="29.368"/>
<path fill="#998675" stroke="#000000" d="M354.195,56.301c0,1.621-1.752,2.938-3.916,2.938h-31.325
	c-2.163,0-3.916-1.315-3.916-2.938V3.438c0-1.622,1.753-2.937,3.916-2.937h31.325c2.164,0,3.916,1.315,3.916,2.937V56.301z"/>
<rect x="310.144" y="57.605" fill="#998675" stroke="#000000" width="48.946" height="4.896"/>
<circle fill="#333333" stroke="#FFFFFF" cx="335.106" cy="22.201" r="14.684"/>
<linearGradient id="SVGID_2_" gradientUnits="userSpaceOnUse" x1="305.1689" y1="-335.0957" x2="305.1689" y2="-305.728" gradientTransform="matrix(1 0 0 -1 -256.1602 -298.46)">
	<stop  offset="0" style="stop-color:#736357"/>
	<stop  offset="0.4945" style="stop-color:#998675"/>
	<stop  offset="1" style="stop-color:#736357"/>
</linearGradient>
<rect x="8.056" y="7.268" fill="url(#SVGID_2_)" stroke="#000000" width="81.905" height="29.368"/>
<rect x="101.708" y="7.268" fill="#333333" stroke="#000000" width="8.484" height="29.368"/>
</svg>
