<?xml version="1.0" encoding="utf-8"?>
<!-- Generator: Adobe Illustrator 13.0.1, SVG Export Plug-In . SVG Version: 6.00 Build 14948)  -->
<!DOCTYPE svg PUBLIC "-//W3C//DTD SVG 1.1//EN" "http://www.w3.org/Graphics/SVG/1.1/DTD/svg11.dtd">
<svg version="1.1" xmlns="http://www.w3.org/2000/svg" xmlns:xlink="http://www.w3.org/1999/xlink" x="0px" y="0px" width="150px"
	 height="120px" viewBox="0 0 150 120" enable-background="new 0 0 150 120" xml:space="preserve">
<g id="레이어_1">
	<polygon opacity="0.6" fill="#B2B2B2" points="96.51,117.646 126.956,117.646 148.482,96.639 148.482,66.931 148.482,53.365 
		148.482,23.655 126.956,2.646 96.51,2.646 96.271,2.646 53.83,2.646 53.456,2.646 23.011,2.646 1.683,23.655 1.683,53.365 
		1.683,66.931 1.683,96.639 23.011,117.646 53.456,117.646 54.223,117.646 95.761,117.646 	"/>
	<polygon fill="none" stroke="#000000" stroke-width="3" points="96.51,118.396 126.956,118.396 148.482,97.115 148.482,67.019 
		148.482,53.276 148.482,23.179 126.956,1.896 96.51,1.896 96.271,1.896 53.83,1.896 53.456,1.896 23.011,1.896 1.683,23.179 
		1.683,53.276 1.683,67.019 1.683,97.115 23.011,118.396 53.456,118.396 54.223,118.396 95.761,118.396 	"/>
	<rect x="18.543" y="25.879" fill="#666666" width="112.699" height="22.54"/>
	<rect x="18.543" y="72.463" fill="#666666" width="112.699" height="22.539"/>
	<rect x="18.634" y="24.984" fill="none" stroke="#000000" stroke-width="2" width="112.699" height="70.325"/>
</g>
</svg>
