<?xml version="1.0" encoding="utf-8"?>
<!-- Generator: Adobe Illustrator 13.0.1, SVG Export Plug-In . SVG Version: 6.00 Build 14948)  -->
<!DOCTYPE svg PUBLIC "-//W3C//DTD SVG 1.1//EN" "http://www.w3.org/Graphics/SVG/1.1/DTD/svg11.dtd">
<svg version="1.1" xmlns="http://www.w3.org/2000/svg" xmlns:xlink="http://www.w3.org/1999/xlink" x="0px" y="0px" width="110px"
	 height="110px" viewBox="0 0 110 110" enable-background="new 0 0 110 110" xml:space="preserve">
<g id="레이어_1_사본">
	<polygon opacity="0.6" fill="#B2B2B2" points="33.045,108.279 1.997,77.232 1.997,33.327 33.045,2.28 76.95,2.28 107.997,33.327 
		107.997,77.232 76.95,108.279 	"/>
	<g>
		<g>
			<path fill="#29CC00" stroke="#000000" d="M15.297,51.493h16.754h5.403c2.652-9.923,14.441-14.049,14.441-14.049v-6.188V15.681
				l-0.005-0.062c-18.214,0-36.602,18.081-36.602,35.779L15.297,51.493z"/>
			<path fill="#666666" stroke="#000000" d="M45.51,16.754"/>
			<path fill="#666666" stroke="#000000" d="M17.138,44.694"/>
			<path fill="#B2B2B2" stroke="#000000" d="M48.55,39.119l2.16,4.244c0,0-0.981,0.916-1.113,2.62c0,0-0.852,2.095-2.75,3.012
				c0,0-3.078,1.048-3.405,1.44l-4.533-2.384C38.909,48.051,41.738,42.589,48.55,39.119z"/>
		</g>
		<g>
			<path fill="#29CC00" stroke="#000000" d="M58.525,15.26v16.754v5.403c9.922,2.652,14.049,14.441,14.049,14.441h6.188h15.575
				l0.061-0.005c0-18.214-18.081-36.603-35.778-36.603L58.525,15.26z"/>
			<path fill="#666666" stroke="#000000" d="M93.264,45.473"/>
			<path fill="#666666" stroke="#000000" d="M65.324,17.101"/>
			<path fill="#B2B2B2" stroke="#000000" d="M70.899,48.512l-4.244,2.161c0,0-0.916-0.982-2.62-1.113c0,0-2.096-0.852-3.012-2.751
				c0,0-1.048-3.077-1.441-3.404l2.385-4.533C61.967,38.872,67.429,41.702,70.899,48.512z"/>
		</g>
		<g>
			<path fill="#29CC00" stroke="#000000" d="M94.391,58.727H77.637h-5.403c-2.652,9.922-14.441,14.047-14.441,14.047v6.189v15.574
				l0.005,0.061c18.214,0,36.602-18.08,36.602-35.777L94.391,58.727z"/>
			<path fill="#666666" stroke="#000000" d="M64.178,93.465"/>
			<path fill="#666666" stroke="#000000" d="M92.55,65.523"/>
			<path fill="#B2B2B2" stroke="#000000" d="M61.139,71.1l-2.161-4.244c0,0,0.982-0.916,1.113-2.619c0,0,0.852-2.098,2.751-3.012
				c0,0,3.077-1.049,3.404-1.441l4.533,2.385C70.779,62.168,67.949,67.629,61.139,71.1z"/>
		</g>
		<g>
			<path fill="#29CC00" stroke="#000000" d="M51.162,94.959V78.203v-5.402c-9.922-2.652-14.048-14.441-14.048-14.441h-6.188H15.351
				l-0.061,0.004c0,18.215,18.081,36.604,35.778,36.604L51.162,94.959z"/>
			<path fill="#666666" stroke="#000000" d="M16.424,64.744"/>
			<path fill="#666666" stroke="#000000" d="M44.364,93.117"/>
			<path fill="#B2B2B2" stroke="#000000" d="M38.788,61.705l4.244-2.16c0,0,0.916,0.982,2.62,1.113c0,0,2.096,0.852,3.013,2.75
				c0,0,1.047,3.078,1.44,3.406l-2.384,4.531C47.722,71.346,42.259,68.518,38.788,61.705z"/>
		</g>
		<circle fill="none" stroke="#000000" stroke-width="3" cx="54.997" cy="55.318" r="39.989"/>
	</g>
	<polygon fill="none" stroke="#000000" stroke-width="3" points="33.045,108.279 1.997,77.232 1.997,33.327 33.045,2.28 76.95,2.28 
		107.997,33.327 107.997,77.232 76.95,108.279 	"/>
</g>
</svg>
