<?xml version="1.0" encoding="utf-8"?>
<!-- Generator: Adobe Illustrator 13.0.1, SVG Export Plug-In . SVG Version: 6.00 Build 14948)  -->
<!DOCTYPE svg PUBLIC "-//W3C//DTD SVG 1.1//EN" "http://www.w3.org/Graphics/SVG/1.1/DTD/svg11.dtd">
<svg version="1.1" id="레이어_1" xmlns="http://www.w3.org/2000/svg" xmlns:xlink="http://www.w3.org/1999/xlink" x="0px"
	 y="0px" width="92px" height="100px" viewBox="0 0 92 100" enable-background="new 0 0 92 100" xml:space="preserve">
<radialGradient id="SVGID_1_" cx="46.085" cy="50.2432" r="47.2116" gradientUnits="userSpaceOnUse">
	<stop  offset="0" style="stop-color:#B2B2B2"/>
	<stop  offset="0.5714" style="stop-color:#999999"/>
	<stop  offset="0.6986" style="stop-color:#818181"/>
	<stop  offset="1" style="stop-color:#4D4D4D"/>
</radialGradient>
<path fill="url(#SVGID_1_)" stroke="#000000" d="M6.615,54.672c0-16.793,10.811-30.389,25.301-36.802
	c3.366-1.49,3.486-3.572,3.486-3.572V9.319l-0.023-0.081V2.144l0.111-0.042c3.631-0.774,6.681-1.182,10.544-1.182
	c3.917,0,7.019,0.419,10.7,1.215l0.013,0.054v7.437l0.038,0.153v4.341c0,0,0.213,2.399,3.02,3.618
	c0.6,0.225,1.198,0.464,1.785,0.717c14.033,6.033,23.863,19.974,23.863,36.219v0.145c0,5.617-1.03,10.96-3.148,15.796
	c0,0-1.809,3.319,0.07,5.215l3.46,3.428l5.251,5.251l-0.074,0.176c-4.205,6.547-8.355,10.545-14.912,14.736l-0.255,0.149
	l-5.188-5.188l-0.144-0.144l-3.378-3.413c-2.042-2.222-6.538,0.478-6.538,0.478c-1.24,0.493-2.514,0.927-3.813,1.294h-0.144
	c-3.417,0.967-6.878,1.497-10.607,1.497H45.89c-3.684,0-6.961-0.518-10.345-1.463h-0.144c-1.852-0.519-3.649-1.169-5.38-1.938
	l-0.829-0.303c0,0-3.095-1.003-4.803,0.573l-2.985,3.166l-0.167,0.19l-5.005,5.007l-0.195-0.184
	C10.02,95.17,5.279,90.453,1.281,84.457l-0.196-0.315l5.413-5.413l3.248-3.284c1.406-1.406,0.305-4.646,0.305-4.646l-0.753-1.81
	C7.565,64.551,6.615,59.724,6.615,54.672"/>
<path fill="none" stroke="#000000" stroke-dasharray="1" d="M46.034,8.086c-3.659,0-7.214,0.435-10.632,1.233"/>
<path fill="#00FF00" stroke="#000000" d="M35.402,16.716"/>
<path fill="none" stroke="#000000" stroke-dasharray="1" d="M6.224,78.969c4.206,7.087,8.228,11.098,15.438,15.117"/>
<path fill="#00FF00" stroke="#000000" d="M56.784,16.75"/>
<path fill="none" stroke="#000000" stroke-dasharray="1" d="M56.784,9.347c-3.451-0.816-7.048-1.26-10.75-1.26"/>
<path fill="none" stroke="#000000" stroke-dasharray="1" d="M85.795,79.052c-4.031,6.761-8.721,11.266-15.517,15.249"/>
<path fill="#00FF00" stroke="#000000" d="M56.784,16.75"/>
<circle fill="#B2B2B2" stroke="#000000" cx="46.158" cy="54.727" r="32.251"/>
<circle fill="none" stroke="#000000" cx="46.158" cy="54.727" r="25.085"/>
<circle fill="none" stroke="#000000" cx="46.157" cy="54.727" r="21.502"/>
<g>
	<circle fill="none" stroke="#000000" cx="50.869" cy="14.509" r="5.375"/>
	<circle fill="none" stroke="#000000" cx="50.869" cy="14.509" r="2.868"/>
	<circle fill="none" stroke="#000000" cx="50.868" cy="14.509" r="1.434"/>
</g>
<g>
	<circle fill="none" stroke="#000000" cx="71.33" cy="86.573" r="5.374"/>
	<circle fill="none" stroke="#000000" cx="71.33" cy="86.573" r="2.866"/>
	<circle fill="none" stroke="#000000" cx="71.33" cy="86.573" r="1.434"/>
</g>
<g>
	<circle fill="none" stroke="#000000" cx="14.052" cy="79.489" r="5.375"/>
	<circle fill="none" stroke="#000000" cx="14.052" cy="79.489" r="2.867"/>
	<circle fill="none" stroke="#000000" cx="14.052" cy="79.489" r="1.433"/>
</g>
</svg>
