<?xml version="1.0" encoding="utf-8"?>
<!-- Generator: Adobe Illustrator 13.0.1, SVG Export Plug-In . SVG Version: 6.00 Build 14948)  -->
<!DOCTYPE svg PUBLIC "-//W3C//DTD SVG 1.1//EN" "http://www.w3.org/Graphics/SVG/1.1/DTD/svg11.dtd">
<svg version="1.1" xmlns="http://www.w3.org/2000/svg" xmlns:xlink="http://www.w3.org/1999/xlink" x="0px" y="0px" width="150px"
	 height="44px" viewBox="0 0 150 44" enable-background="new 0 0 150 44" xml:space="preserve">
<g id="레이어_1" display="none">
	<g display="inline">
		<polygon fill="#F2F2F2" stroke="#4D4D4D" points="125.378,0.798 148.343,21.798 125.378,42.798 124.278,42.798 0.993,42.798 
			0.993,0.798 124.278,0.798 		"/>
		<polygon fill="#CCCCCC" points="124.338,5.292 143.231,21.728 124.292,39.983 123.294,39.983 4.981,39.983 4.981,5.278 
			123.294,5.278 		"/>
		<g>
			<polyline fill="#666666" points="142.697,21.721 147.619,21.783 125.266,42.288 124.391,38.33 			"/>
		</g>
		<g>
			<polyline fill="#B2B2B2" points="142.646,21.791 123.838,5.275 125.229,1.313 147.619,21.783 			"/>
		</g>
		<polygon fill="#666666" points="125.281,42.359 1.419,42.316 1.419,38.316 125.201,38.316 		"/>
		<polygon fill="#F2F2F2" points="5.409,5.418 1.409,1.292 1.409,42.276 5.408,38.196 		"/>
	</g>
</g>
<g id="레이어_2" display="none">
	<g display="inline">
		<polygon fill="#808080" stroke="#4D4D4D" points="125.378,0.798 148.343,21.798 125.378,42.798 124.278,42.798 0.993,42.798 
			0.993,0.798 124.278,0.798 		"/>
		<polygon fill="#CCCCCC" points="124.338,5.292 143.231,21.728 124.292,39.983 123.294,39.983 4.981,39.983 4.981,5.278 
			123.294,5.278 		"/>
		<g>
			<polyline fill="#E5E5E5" points="142.697,21.721 147.619,21.783 125.266,42.288 124.391,38.33 			"/>
		</g>
		<g>
			<polyline fill="#B2B2B2" points="142.646,21.791 123.838,5.275 125.229,1.313 147.619,21.783 			"/>
		</g>
		<polygon fill="#E5E5E5" points="125.281,42.359 1.419,42.316 1.419,38.316 125.201,38.316 		"/>
		<polygon fill="#808080" points="5.409,5.418 1.409,1.292 1.409,42.276 5.408,38.196 		"/>
	</g>
</g>
<g id="레이어_3">
	<g>
		<polygon fill="#666666" stroke="#4D4D4D" points="23.958,42.798 0.993,21.798 23.958,0.798 25.058,0.798 148.343,0.798 
			148.343,42.798 25.058,42.798 		"/>
		<polygon fill="#CCCCCC" points="24.998,38.304 6.104,21.868 25.044,3.612 26.042,3.612 144.354,3.612 144.354,38.317 
			26.042,38.317 		"/>
		<g>
			<polyline fill="#E5E5E5" points="6.639,21.875 1.717,21.813 24.07,1.308 24.945,5.266 			"/>
		</g>
		<g>
			<polyline fill="#B2B2B2" points="6.689,21.805 25.498,38.32 24.106,42.283 1.717,21.813 			"/>
		</g>
		<polygon fill="#E5E5E5" points="24.055,1.236 147.917,1.279 147.917,5.279 24.135,5.279 		"/>
		<polygon fill="#666666" points="143.928,38.178 147.927,42.304 147.928,1.319 143.928,5.399 		"/>
	</g>
</g>
<g id="레이어_4" display="none">
	<g display="inline">
		<polygon fill="#E5E5E5" stroke="#4D4D4D" points="23.958,42.798 0.993,21.798 23.958,0.798 25.058,0.798 148.343,0.798 
			148.343,42.798 25.058,42.798 		"/>
		<polygon fill="#CCCCCC" points="24.998,38.304 6.104,21.868 25.044,3.612 26.042,3.612 144.354,3.612 144.354,38.317 
			26.042,38.317 		"/>
		<g>
			<polyline fill="#666666" points="6.639,21.875 1.717,21.813 24.07,1.308 24.945,5.266 			"/>
		</g>
		<g>
			<polyline fill="#B2B2B2" points="6.689,21.805 25.498,38.32 24.106,42.283 1.717,21.813 			"/>
		</g>
		<polygon fill="#666666" points="24.055,1.236 147.917,1.279 147.917,5.279 24.135,5.279 		"/>
		<polygon fill="#E5E5E5" points="143.928,38.178 147.927,42.304 147.928,1.319 143.928,5.399 		"/>
	</g>
</g>
</svg>
