<?xml version="1.0" encoding="utf-8"?>
<!-- Generator: Adobe Illustrator 13.0.1, SVG Export Plug-In . SVG Version: 6.00 Build 14948)  -->
<!DOCTYPE svg PUBLIC "-//W3C//DTD SVG 1.1//EN" "http://www.w3.org/Graphics/SVG/1.1/DTD/svg11.dtd">
<svg version="1.1" id="레이어_1" xmlns="http://www.w3.org/2000/svg" xmlns:xlink="http://www.w3.org/1999/xlink" x="0px"
	 y="0px" width="114px" height="100px" viewBox="0 0 114 100" enable-background="new 0 0 114 100" xml:space="preserve">
<rect x="30.843" y="17.94" transform="matrix(-0.707 0.7072 -0.7072 -0.707 75.3656 11.4122)" fill="#C0C0C0" stroke="#000000" width="8.951" height="6.754"/>
<rect x="22.709" y="10.057" transform="matrix(0.7071 -0.7072 0.7072 0.7071 -1.4633 23.3377)" fill="#C0C0C0" stroke="#000000" width="9.455" height="6.755"/>
<rect x="12.177" y="24.888" transform="matrix(0.7072 -0.707 0.707 0.7072 -15.591 17.8723)" fill="#C0C0C0" stroke="#000000" width="3.209" height="5.742"/>
<rect x="-0.254" y="21.535" transform="matrix(0.7071 -0.7071 0.7071 0.7071 -13.6262 14.8587)" fill="#C0C0C0" stroke="#000000" width="22.854" height="4.687"/>
<rect x="33.281" y="21.008" transform="matrix(0.7068 -0.7074 0.7074 0.7068 -33.6598 42.2834)" fill="#C0C0C0" stroke="#000000" width="1.804" height="81.486"/>
<rect x="12.281" y="29.13" transform="matrix(0.7071 -0.7071 0.7071 0.7071 -16.7536 20.6804)" fill="#C0C0C0" stroke="#000000" width="8.613" height="2.87"/>
<rect x="17.726" y="33.406" transform="matrix(0.7071 -0.7071 0.7071 0.7071 -18.5196 24.9436)" fill="#C0C0C0" stroke="#000000" width="6.247" height="2.841"/>
<rect x="44.047" y="26.041" transform="matrix(0.7068 -0.7074 0.7074 0.7068 -28.7968 49.7765)" fill="#C0C0C0" stroke="#000000" width="3.208" height="67.173"/>
<rect x="11.989" y="25.416" transform="matrix(0.7071 -0.7071 0.7071 0.7071 -12.1004 24.9482)" fill="#C0C0C0" stroke="#000000" width="24.151" height="4.13"/>
<rect x="15.815" y="2.995" transform="matrix(0.707 -0.7072 0.7072 0.707 1.7774 15.5163)" fill="#C0C0C0" stroke="#000000" width="7.599" height="5.237"/>
<rect x="15.648" y="5.953" transform="matrix(0.7071 -0.7071 0.7071 0.7071 0.3409 18.9765)" fill="#C0C0C0" stroke="#000000" width="14.862" height="6.248"/>
<rect x="24.21" y="14.939" transform="matrix(-0.7071 0.7071 -0.7071 -0.7071 66.2845 7.6545)" fill="#C0C0C0" stroke="#000000" width="14.694" height="5.234"/>
<rect x="78.336" y="64.842" transform="matrix(-0.7071 0.7071 -0.7071 -0.7071 189.617 58.7422)" fill="#C0C0C0" stroke="#000000" width="8.614" height="7.599"/>
<rect x="86.372" y="70.194" transform="matrix(-0.7071 0.7071 -0.7071 -0.7071 211.7187 67.7251)" fill="#C0C0C0" stroke="#000000" width="10.923" height="15.033"/>
<rect x="51.54" y="14.865" transform="matrix(0.7071 -0.7071 0.7071 0.7071 -14.438 54.6582)" fill="#29CC00" stroke="#000000" width="14.439" height="59.784"/>
<rect x="58.949" y="78.892" transform="matrix(0.7071 -0.7071 0.7071 0.7071 -35.6122 76.5951)" fill="#C0C0C0" stroke="#000000" width="31.413" height="4.589"/>
<rect x="81.089" y="68.535" transform="matrix(0.7071 -0.7071 0.7071 0.7071 -24.2797 81.7459)" fill="#C0C0C0" stroke="#000000" width="10.894" height="3.293"/>
<circle fill="#C0C0C0" stroke="#000000" cx="102.394" cy="88.271" r="10.804"/>
<circle fill="#C0C0C0" stroke="#000000" cx="102.394" cy="88.272" r="8.643"/>
</svg>