<?xml version="1.0" encoding="utf-8"?>
<!-- Generator: Adobe Illustrator 13.0.1, SVG Export Plug-In . SVG Version: 6.00 Build 14948)  -->
<!DOCTYPE svg PUBLIC "-//W3C//DTD SVG 1.1//EN" "http://www.w3.org/Graphics/SVG/1.1/DTD/svg11.dtd">
<svg version="1.1" id="레이어_1" xmlns="http://www.w3.org/2000/svg" xmlns:xlink="http://www.w3.org/1999/xlink" x="0px"
	 y="0px" width="100px" height="45px" viewBox="0 0 100 45" enable-background="new 0 0 100 45" xml:space="preserve">
<g>
	<path fill="#C52819" d="M0.516,37.109l0.037-1.061c1.421-0.048,2.415-1.128,2.979-1.751c0.564-0.625,0.846-1.772,0.846-3.44V8.718
		c0-1.619-0.282-2.764-0.846-3.438C2.967,4.605,1.986,4.22,0.59,4.12V2.319h14.489v4.816c1.374-1.886,2.967-3.314,4.781-4.284
		c1.815-0.967,3.06-1.453,5.169-1.453c3.312,0,5.775,0.987,7.393,2.962c1.619,1.975,2.427,4.984,2.427,9.029v17.468
		c0,1.619,0.271,2.753,0.81,3.402c0.539,0.649,1.495,1.741,2.869,1.789v1.061H20.433l0.038-1.061
		c1.348-0.048,2.298-1.146,2.851-1.808c0.55-0.66,0.827-1.789,0.827-3.384V12.764c0-2.329-0.271-3.923-0.81-4.781
		c-0.539-0.859-0.769-1.287-2.117-1.287c-1.177,0-2.286,0.342-3.329,1.029c-1.041,0.688-1.979,1.691-2.813,3.016v20.117
		c0,1.619,0.264,2.753,0.792,3.402c0.527,0.649,1.464,1.741,2.813,1.789v1.061H0.516z"/>
</g>
<g>
	<path fill="#51565D" d="M38.477,32.592v-0.77c0.94-0.048,1.572-0.231,1.897-0.55c0.325-0.322,0.487-0.979,0.487-1.978V16.014
		c0-1.134-0.18-1.886-0.539-2.259c-0.358-0.374-1.051-0.575-2.079-0.603V12.41h9.17c3.515,0,6.213,0.869,8.094,2.607
		c1.879,1.738,2.818,4.236,2.818,7.491c0,3.333-0.888,5.848-2.668,7.542c-1.776,1.694-4.426,2.541-7.954,2.541H38.477z
		 M45.656,29.41c0,0.883,0.12,1.455,0.363,1.715c0.242,0.263,0.716,0.393,1.425,0.393c1.917,0,3.344-0.742,4.279-2.231
		c0.934-1.485,1.4-3.765,1.4-6.835c0-2.964-0.479-5.214-1.438-6.75c-0.959-1.536-2.364-2.303-4.214-2.303
		c-0.726,0-1.21,0.132-1.453,0.398c-0.243,0.268-0.363,0.846-0.363,1.737V29.41z"/>
	<path fill="#51565D" d="M69.307,12.41c1.655,0,2.912,0.077,3.77,0.232c0.854,0.154,1.613,0.407,2.273,0.756
		c0.844,0.465,1.487,1.086,1.939,1.867c0.451,0.78,0.677,1.655,0.677,2.623c0,1.754-0.653,3.124-1.955,4.113
		c-1.305,0.988-3.12,1.481-5.458,1.481H67.91v5.534c0,1.098,0.181,1.825,0.544,2.188c0.362,0.365,1.064,0.569,2.099,0.617v0.77
		H60.528v-0.77c0.987-0.028,1.67-0.244,2.048-0.646c0.379-0.401,0.568-1.122,0.568-2.16V15.811c0-0.959-0.189-1.63-0.568-2.014
		c-0.378-0.382-1.051-0.597-2.02-0.646V12.41H69.307z M67.91,22.421h0.856c1.453,0,2.488-0.336,3.103-1.01
		c0.613-0.672,0.925-1.808,0.925-3.406c0-1.6-0.265-2.75-0.796-3.459c-0.526-0.707-1.386-1.06-2.576-1.06
		c-0.572,0-0.968,0.103-1.187,0.311c-0.218,0.209-0.325,0.594-0.325,1.155V22.421z"/>
	<path fill="#C52819" d="M80.559,33.072v-7.468h0.857c0.466,2.141,1.187,3.731,2.164,4.771c0.979,1.042,2.242,1.563,3.792,1.563
		c1.087,0,1.964-0.307,2.634-0.916c0.668-0.609,1-1.404,1-2.382c0-0.689-0.19-1.285-0.574-1.787
		c-0.382-0.503-0.984-0.951-1.81-1.338l-2.76-1.381c-1.743-0.833-3.012-1.746-3.809-2.739c-0.794-0.992-1.19-2.162-1.19-3.509
		c0-1.773,0.551-3.207,1.648-4.301c1.103-1.094,2.54-1.642,4.325-1.642c1.016,0,2.082,0.156,3.203,0.471
		c1.12,0.316,1.746,0.472,1.881,0.472c0.252,0,0.457-0.081,0.619-0.246c0.157-0.166,0.265-0.397,0.313-0.697h0.828v6.509h-0.741
		c-0.426-1.666-1.165-3.01-2.217-4.033c-1.052-1.021-2.207-1.533-3.467-1.533c-0.978,0-1.771,0.268-2.381,0.8
		c-0.612,0.533-0.916,1.221-0.916,2.063c0,0.698,0.234,1.313,0.697,1.846c0.466,0.533,1.249,1.056,2.354,1.569l2.861,1.352
		c1.706,0.805,2.914,1.684,3.634,2.638c0.716,0.953,1.075,2.134,1.075,3.536c0,1.929-0.671,3.47-2.014,4.621
		c-1.341,1.154-3.14,1.73-5.398,1.73c-0.968,0-1.973-0.165-3.015-0.494c-1.041-0.328-1.626-0.493-1.751-0.493
		c-0.3,0-0.523,0.072-0.675,0.217c-0.151,0.146-0.275,0.411-0.372,0.799H80.559z"/>
</g>
<rect x="38.289" y="36.039" fill="#C52819" width="56.807" height="1.07"/>
<g>
	<path fill="#51565D" d="M21.441,42.307c0,0.188,0.032,0.311,0.094,0.372c0.062,0.057,0.186,0.093,0.37,0.104v0.134h-1.153
		l0.002-0.134c0.176-0.006,0.295-0.042,0.355-0.101c0.06-0.062,0.091-0.186,0.091-0.375v-2.409l-0.161-0.199
		c-0.006-0.004-0.013-0.012-0.021-0.022c-0.085-0.104-0.174-0.161-0.267-0.169v-0.134h1.076l1.824,2.232v-1.624
		c0-0.188-0.032-0.312-0.094-0.371c-0.063-0.061-0.185-0.095-0.372-0.104v-0.134h1.154v0.131c-0.175,0.007-0.294,0.04-0.356,0.104
		c-0.062,0.063-0.092,0.188-0.092,0.379v3.016h-0.145l-2.305-2.806V42.307z"/>
	<path fill="#51565D" d="M26.872,42.369c0,0.122,0.018,0.201,0.05,0.239c0.033,0.037,0.099,0.058,0.195,0.058
		c0.034,0,0.061,0,0.079-0.002c0.019-0.001,0.036-0.001,0.051-0.001v0.092c-0.108,0.023-0.233,0.056-0.37,0.103
		c-0.137,0.046-0.292,0.103-0.464,0.173v-0.41c-0.153,0.136-0.294,0.235-0.425,0.298c-0.131,0.064-0.258,0.093-0.387,0.093
		c-0.241,0-0.413-0.068-0.511-0.205c-0.098-0.138-0.147-0.393-0.147-0.766v-0.938c0-0.208-0.024-0.337-0.072-0.385
		c-0.049-0.048-0.143-0.072-0.283-0.072h-0.02v-0.099l0.829-0.05v1.554c0,0.231,0.034,0.397,0.104,0.499
		c0.07,0.103,0.186,0.154,0.343,0.154c0.102,0,0.2-0.023,0.295-0.072c0.094-0.046,0.185-0.118,0.272-0.212v-1.378
		c0-0.177-0.026-0.285-0.076-0.332c-0.05-0.043-0.15-0.064-0.302-0.064v-0.099l0.836-0.05V42.369z"/>
	<path fill="#51565D" d="M29.594,42.102l0.083,0.059c-0.146,0.29-0.307,0.508-0.484,0.646c-0.176,0.142-0.376,0.211-0.597,0.211
		c-0.296,0-0.542-0.118-0.737-0.354c-0.195-0.236-0.292-0.532-0.292-0.892c0-0.398,0.114-0.723,0.342-0.978
		c0.229-0.253,0.52-0.38,0.876-0.38c0.231,0,0.419,0.052,0.568,0.151c0.148,0.102,0.22,0.23,0.22,0.388
		c0,0.076-0.023,0.138-0.069,0.185c-0.046,0.042-0.109,0.063-0.188,0.063c-0.078,0-0.135-0.019-0.175-0.058
		c-0.04-0.045-0.069-0.119-0.092-0.229c-0.021-0.12-0.06-0.206-0.116-0.253c-0.054-0.052-0.136-0.075-0.243-0.075
		c-0.195,0-0.36,0.09-0.49,0.271c-0.131,0.182-0.196,0.41-0.196,0.696c0,0.314,0.075,0.569,0.228,0.766
		c0.153,0.197,0.349,0.295,0.589,0.295c0.158,0,0.296-0.039,0.417-0.118C29.357,42.417,29.477,42.286,29.594,42.102z"/>
	<path fill="#51565D" d="M29.87,42.954v-0.097c0.151-0.009,0.251-0.035,0.301-0.083c0.051-0.05,0.074-0.158,0.074-0.329v-2.577
		c0-0.157-0.017-0.254-0.051-0.287c-0.035-0.037-0.105-0.054-0.214-0.054h-0.084v-0.099c0.092-0.014,0.205-0.041,0.34-0.083
		c0.136-0.038,0.292-0.096,0.471-0.163v3.286c0,0.151,0.024,0.254,0.073,0.304c0.047,0.051,0.144,0.08,0.286,0.085v0.097H29.87z"/>
	<path fill="#51565D" d="M33.558,42.03l0.093,0.058c-0.145,0.313-0.312,0.546-0.503,0.7c-0.19,0.152-0.411,0.229-0.662,0.229
		c-0.311,0-0.564-0.114-0.759-0.343c-0.195-0.228-0.293-0.524-0.293-0.893c0-0.403,0.105-0.73,0.315-0.979
		c0.209-0.247,0.486-0.373,0.826-0.373c0.276,0,0.497,0.086,0.666,0.26c0.167,0.173,0.261,0.409,0.281,0.715h-1.693v0.056
		c0,0.348,0.08,0.627,0.243,0.835c0.163,0.206,0.379,0.31,0.646,0.31c0.168,0,0.322-0.049,0.461-0.145
		C33.317,42.365,33.443,42.222,33.558,42.03z M31.846,41.249h1.013c0.065,0,0.105-0.006,0.121-0.016
		c0.013-0.014,0.019-0.04,0.019-0.078c0-0.16-0.05-0.293-0.149-0.398s-0.226-0.161-0.379-0.161c-0.175,0-0.318,0.059-0.427,0.172
		C31.934,40.881,31.869,41.044,31.846,41.249z"/>
	<path fill="#51565D" d="M35.518,42.666c-0.146,0.113-0.286,0.197-0.419,0.252C34.966,42.973,34.838,43,34.713,43
		c-0.184,0-0.331-0.052-0.442-0.159c-0.109-0.104-0.164-0.242-0.164-0.421c0-0.219,0.098-0.405,0.295-0.561
		c0.196-0.15,0.563-0.313,1.101-0.482v-0.284c0-0.196-0.032-0.333-0.095-0.41c-0.066-0.078-0.176-0.116-0.334-0.116
		c-0.115,0-0.214,0.028-0.293,0.087c-0.081,0.055-0.121,0.124-0.121,0.202c0,0.005,0.003,0.027,0.011,0.068
		c0.007,0.039,0.01,0.072,0.01,0.102c0,0.063-0.023,0.119-0.068,0.16c-0.045,0.042-0.102,0.063-0.172,0.063
		c-0.073,0-0.131-0.023-0.177-0.068c-0.045-0.045-0.067-0.107-0.067-0.187c0-0.146,0.088-0.279,0.261-0.388
		c0.175-0.109,0.386-0.165,0.636-0.165c0.294,0,0.511,0.064,0.65,0.193c0.139,0.128,0.208,0.332,0.208,0.605v1.21
		c0,0.091,0.012,0.155,0.036,0.193c0.023,0.042,0.062,0.061,0.114,0.061c0.041,0,0.078-0.007,0.106-0.021
		c0.032-0.016,0.067-0.043,0.108-0.079l0.063,0.07c-0.076,0.104-0.159,0.185-0.252,0.24C36.034,42.973,35.94,43,35.847,43
		c-0.085,0-0.154-0.026-0.206-0.08C35.588,42.868,35.547,42.784,35.518,42.666z M35.502,42.455v-0.937
		c-0.332,0.111-0.571,0.229-0.72,0.349c-0.147,0.122-0.222,0.26-0.222,0.419c0,0.13,0.042,0.238,0.123,0.326
		c0.082,0.089,0.184,0.132,0.306,0.132c0.101,0,0.198-0.027,0.292-0.078C35.375,42.612,35.45,42.542,35.502,42.455z"/>
	<path fill="#51565D" d="M36.616,42.954v-0.099c0.159-0.012,0.268-0.046,0.326-0.108c0.057-0.058,0.086-0.167,0.086-0.327v-1.27
		c0-0.152-0.021-0.25-0.063-0.293c-0.041-0.046-0.126-0.067-0.25-0.067h-0.084v-0.1c0.195-0.056,0.362-0.105,0.498-0.148
		c0.137-0.044,0.257-0.083,0.359-0.122v0.488c0.122-0.154,0.236-0.273,0.341-0.35c0.106-0.079,0.206-0.117,0.301-0.117
		c0.087,0,0.158,0.025,0.215,0.073c0.056,0.052,0.083,0.116,0.083,0.19s-0.019,0.135-0.057,0.176
		c-0.04,0.046-0.09,0.069-0.152,0.069c-0.061,0-0.128-0.024-0.199-0.074c-0.073-0.05-0.123-0.075-0.15-0.075
		c-0.054,0-0.112,0.027-0.17,0.077c-0.058,0.053-0.128,0.14-0.212,0.258v1.333c0,0.146,0.029,0.245,0.09,0.297
		c0.059,0.05,0.178,0.079,0.359,0.09v0.099H36.616z"/>
	<path fill="#51565D" d="M40.066,42.916v-0.134c0.167-0.01,0.276-0.042,0.334-0.096c0.056-0.059,0.085-0.174,0.085-0.349v-2.333
		c0-0.197-0.032-0.329-0.095-0.395c-0.061-0.066-0.184-0.102-0.365-0.106v-0.131h1.61c0.617,0,1.09,0.153,1.42,0.457
		c0.33,0.305,0.495,0.746,0.495,1.316c0,0.585-0.156,1.025-0.467,1.325c-0.313,0.295-0.779,0.444-1.397,0.444H40.066z
		 M41.327,42.357c0,0.155,0.022,0.257,0.064,0.303c0.041,0.046,0.125,0.068,0.251,0.068c0.336,0,0.586-0.13,0.75-0.393
		c0.165-0.262,0.246-0.661,0.246-1.197c0-0.524-0.083-0.918-0.252-1.187c-0.169-0.27-0.414-0.405-0.74-0.405
		c-0.127,0-0.214,0.024-0.255,0.07c-0.042,0.047-0.064,0.15-0.064,0.305V42.357z"/>
	<path fill="#51565D" d="M45.463,42.666c-0.146,0.113-0.286,0.197-0.419,0.252C44.912,42.973,44.784,43,44.659,43
		c-0.186,0-0.333-0.052-0.443-0.159c-0.109-0.104-0.164-0.242-0.164-0.421c0-0.219,0.099-0.405,0.295-0.561
		c0.196-0.15,0.562-0.313,1.099-0.482v-0.284c0-0.196-0.03-0.333-0.094-0.41c-0.066-0.078-0.175-0.116-0.333-0.116
		c-0.116,0-0.214,0.028-0.292,0.087c-0.08,0.055-0.121,0.124-0.121,0.202c0,0.005,0.002,0.027,0.01,0.068
		c0.005,0.039,0.012,0.072,0.012,0.102c0,0.063-0.025,0.119-0.07,0.16c-0.045,0.042-0.102,0.063-0.171,0.063
		c-0.074,0-0.132-0.023-0.177-0.068s-0.069-0.107-0.069-0.187c0-0.146,0.088-0.279,0.263-0.388c0.173-0.109,0.386-0.165,0.635-0.165
		c0.295,0,0.512,0.064,0.649,0.193c0.14,0.128,0.209,0.332,0.209,0.605v1.21c0,0.091,0.012,0.155,0.037,0.193
		c0.022,0.042,0.061,0.061,0.113,0.061c0.042,0,0.077-0.007,0.107-0.021c0.031-0.016,0.065-0.043,0.107-0.079l0.064,0.07
		c-0.075,0.104-0.159,0.185-0.254,0.24C45.978,42.973,45.886,43,45.792,43c-0.084,0-0.155-0.026-0.208-0.08
		C45.532,42.868,45.492,42.784,45.463,42.666z M45.446,42.455v-0.937c-0.33,0.111-0.57,0.229-0.717,0.349
		c-0.149,0.122-0.223,0.26-0.223,0.419c0,0.13,0.042,0.238,0.123,0.326c0.081,0.089,0.183,0.132,0.306,0.132
		c0.1,0,0.198-0.027,0.292-0.078C45.321,42.612,45.394,42.542,45.446,42.455z"/>
	<path fill="#51565D" d="M46.555,40.682v-0.07c0.166-0.097,0.31-0.217,0.43-0.36c0.123-0.145,0.223-0.312,0.304-0.5h0.1v0.746h0.583
		v0.185h-0.583v1.654c0,0.137,0.018,0.232,0.055,0.286c0.04,0.055,0.101,0.082,0.194,0.082c0.061,0,0.121-0.015,0.181-0.044
		c0.059-0.031,0.118-0.074,0.173-0.136l0.069,0.075c-0.103,0.143-0.205,0.248-0.309,0.313c-0.103,0.066-0.22,0.098-0.351,0.098
		c-0.163,0-0.286-0.044-0.362-0.135c-0.076-0.092-0.114-0.238-0.114-0.437v-1.758H46.555z"/>
	<path fill="#51565D" d="M49.85,42.666c-0.146,0.113-0.287,0.197-0.42,0.252C49.297,42.973,49.168,43,49.044,43
		c-0.186,0-0.332-0.052-0.442-0.159c-0.107-0.104-0.164-0.242-0.164-0.421c0-0.219,0.098-0.405,0.293-0.561
		c0.196-0.15,0.564-0.313,1.101-0.482v-0.284c0-0.196-0.03-0.333-0.093-0.41c-0.066-0.078-0.176-0.116-0.336-0.116
		c-0.113,0-0.211,0.028-0.292,0.087c-0.078,0.055-0.118,0.124-0.118,0.202c0,0.005,0.003,0.027,0.009,0.068
		c0.006,0.039,0.009,0.072,0.009,0.102c0,0.063-0.021,0.119-0.066,0.16c-0.046,0.042-0.102,0.063-0.174,0.063
		c-0.07,0-0.129-0.023-0.175-0.068c-0.044-0.045-0.069-0.107-0.069-0.187c0-0.146,0.087-0.279,0.263-0.388
		c0.172-0.109,0.386-0.165,0.635-0.165c0.296,0,0.511,0.064,0.65,0.193c0.139,0.128,0.207,0.332,0.207,0.605v1.21
		c0,0.091,0.012,0.155,0.036,0.193c0.024,0.042,0.063,0.061,0.115,0.061c0.043,0,0.078-0.007,0.106-0.021
		c0.034-0.016,0.067-0.043,0.11-0.079l0.06,0.07c-0.074,0.104-0.153,0.185-0.248,0.24C50.366,42.973,50.27,43,50.177,43
		c-0.083,0-0.154-0.026-0.207-0.08C49.918,42.868,49.876,42.784,49.85,42.666z M49.832,42.455v-0.937
		c-0.331,0.111-0.572,0.229-0.718,0.349c-0.149,0.122-0.222,0.26-0.222,0.419c0,0.13,0.041,0.238,0.121,0.326
		c0.083,0.089,0.185,0.132,0.308,0.132c0.1,0,0.198-0.027,0.291-0.078C49.708,42.612,49.781,42.542,49.832,42.455z"/>
	<path fill="#51565D" d="M53.852,39.373c0.29,0,0.512,0.015,0.662,0.042c0.149,0.025,0.28,0.07,0.399,0.132
		c0.145,0.081,0.26,0.19,0.338,0.329c0.082,0.136,0.119,0.29,0.119,0.458c0,0.311-0.114,0.548-0.342,0.722
		c-0.229,0.177-0.552,0.262-0.96,0.262h-0.463v0.972c0,0.192,0.031,0.321,0.096,0.384c0.064,0.063,0.186,0.1,0.367,0.109v0.134
		h-1.757v-0.134c0.174-0.004,0.293-0.045,0.355-0.114c0.069-0.069,0.1-0.196,0.1-0.379v-2.316c0-0.171-0.03-0.287-0.1-0.355
		c-0.063-0.067-0.18-0.104-0.352-0.113v-0.131H53.852z M53.605,41.13h0.15c0.255,0,0.436-0.058,0.545-0.176
		c0.107-0.119,0.162-0.317,0.162-0.598s-0.05-0.482-0.138-0.608c-0.095-0.124-0.245-0.184-0.454-0.184
		c-0.1,0-0.17,0.017-0.208,0.053c-0.04,0.035-0.058,0.104-0.058,0.202V41.13z"/>
	<path fill="#51565D" d="M55.606,42.954v-0.099c0.158-0.012,0.27-0.046,0.325-0.108c0.06-0.058,0.09-0.167,0.09-0.327v-1.27
		c0-0.152-0.022-0.25-0.065-0.293c-0.041-0.046-0.124-0.067-0.249-0.067h-0.085v-0.1c0.195-0.056,0.36-0.105,0.496-0.148
		c0.138-0.044,0.26-0.083,0.361-0.122v0.488c0.122-0.154,0.236-0.273,0.339-0.35c0.106-0.079,0.21-0.117,0.302-0.117
		c0.085,0,0.157,0.025,0.218,0.073c0.052,0.052,0.083,0.116,0.083,0.19s-0.022,0.135-0.058,0.176
		c-0.037,0.046-0.088,0.069-0.153,0.069c-0.059,0-0.128-0.024-0.199-0.074s-0.121-0.075-0.149-0.075
		c-0.055,0-0.109,0.027-0.17,0.077c-0.06,0.053-0.128,0.14-0.212,0.258v1.333c0,0.146,0.029,0.245,0.089,0.297
		c0.06,0.05,0.181,0.079,0.362,0.09v0.099H55.606z"/>
	<path fill="#51565D" d="M58.923,43.018c-0.357,0-0.65-0.12-0.873-0.357c-0.227-0.24-0.336-0.548-0.336-0.928
		c0-0.388,0.117-0.704,0.349-0.948c0.239-0.242,0.545-0.364,0.923-0.364c0.364,0,0.655,0.116,0.874,0.346
		c0.217,0.23,0.325,0.54,0.325,0.922c0,0.406-0.111,0.729-0.341,0.968C59.613,42.897,59.307,43.018,58.923,43.018z M58.208,41.549
		c0,0.389,0.071,0.704,0.222,0.947c0.15,0.241,0.341,0.363,0.574,0.363c0.23,0,0.403-0.078,0.517-0.236
		c0.117-0.156,0.169-0.396,0.169-0.714c0-0.405-0.073-0.733-0.224-0.979c-0.149-0.246-0.343-0.369-0.581-0.369
		c-0.214,0-0.378,0.086-0.5,0.257C58.267,40.992,58.208,41.237,58.208,41.549z"/>
	<path fill="#51565D" d="M62.426,43.018v-0.343c-0.118,0.112-0.239,0.193-0.361,0.245c-0.127,0.054-0.26,0.08-0.401,0.08
		c-0.31,0-0.557-0.108-0.74-0.326s-0.276-0.51-0.276-0.875c0-0.404,0.11-0.732,0.321-0.988c0.22-0.251,0.493-0.381,0.827-0.381
		c0.125,0,0.242,0.022,0.347,0.063c0.11,0.043,0.204,0.103,0.284,0.183v-0.839c0-0.127-0.022-0.214-0.062-0.256
		c-0.048-0.045-0.134-0.066-0.263-0.066h-0.055v-0.076c0.174-0.037,0.331-0.081,0.472-0.123c0.144-0.045,0.265-0.089,0.364-0.133
		v3.214c0,0.12,0.014,0.196,0.043,0.227s0.083,0.049,0.17,0.049h0.087v0.089c-0.141,0.038-0.371,0.116-0.684,0.23L62.426,43.018z
		 M62.426,42.506v-1.36c0-0.144-0.06-0.27-0.184-0.388s-0.262-0.176-0.42-0.176c-0.213,0-0.387,0.086-0.516,0.261
		c-0.136,0.173-0.2,0.4-0.2,0.688c0,0.356,0.073,0.642,0.224,0.856c0.15,0.216,0.346,0.322,0.586,0.322
		c0.088,0,0.173-0.017,0.263-0.054C62.267,42.622,62.353,42.571,62.426,42.506z"/>
	<path fill="#51565D" d="M65.723,42.369c0,0.122,0.02,0.201,0.051,0.239c0.034,0.037,0.098,0.058,0.195,0.058
		c0.034,0,0.062,0,0.078-0.002c0.021-0.001,0.036-0.001,0.05-0.001v0.092c-0.106,0.023-0.229,0.056-0.366,0.103
		c-0.138,0.046-0.296,0.103-0.465,0.173v-0.41c-0.154,0.136-0.295,0.235-0.426,0.298c-0.128,0.064-0.258,0.093-0.388,0.093
		c-0.238,0-0.41-0.068-0.51-0.205c-0.098-0.138-0.146-0.393-0.146-0.766v-0.938c0-0.208-0.026-0.337-0.073-0.385
		c-0.051-0.048-0.144-0.072-0.281-0.072h-0.021v-0.099l0.829-0.05v1.554c0,0.231,0.038,0.397,0.104,0.499
		c0.073,0.103,0.186,0.154,0.345,0.154c0.1,0,0.199-0.023,0.295-0.072c0.093-0.046,0.185-0.118,0.271-0.212v-1.378
		c0-0.177-0.028-0.285-0.076-0.332c-0.053-0.043-0.152-0.064-0.302-0.064v-0.099l0.835-0.05V42.369z"/>
	<path fill="#51565D" d="M68.446,42.102l0.082,0.059c-0.146,0.29-0.31,0.508-0.486,0.646c-0.174,0.142-0.372,0.211-0.595,0.211
		c-0.297,0-0.54-0.118-0.735-0.354c-0.195-0.236-0.293-0.532-0.293-0.892c0-0.398,0.111-0.723,0.341-0.978
		c0.23-0.253,0.521-0.38,0.876-0.38c0.232,0,0.424,0.052,0.568,0.151c0.148,0.102,0.219,0.23,0.219,0.388
		c0,0.076-0.023,0.138-0.066,0.185c-0.05,0.042-0.109,0.063-0.19,0.063c-0.076,0-0.133-0.019-0.174-0.058
		c-0.038-0.045-0.071-0.119-0.093-0.229c-0.018-0.12-0.06-0.206-0.113-0.253c-0.056-0.052-0.14-0.075-0.245-0.075
		c-0.195,0-0.357,0.09-0.488,0.271c-0.132,0.182-0.198,0.41-0.198,0.696c0,0.314,0.076,0.569,0.231,0.766
		c0.149,0.197,0.344,0.295,0.587,0.295c0.155,0,0.298-0.039,0.415-0.118C68.207,42.417,68.325,42.286,68.446,42.102z"/>
	<path fill="#51565D" d="M68.729,40.682v-0.07c0.164-0.097,0.308-0.217,0.429-0.36c0.119-0.145,0.222-0.312,0.302-0.5h0.098v0.746
		h0.586v0.185h-0.586v1.654c0,0.137,0.02,0.232,0.057,0.286c0.037,0.055,0.104,0.082,0.195,0.082c0.061,0,0.123-0.015,0.183-0.044
		c0.056-0.031,0.116-0.074,0.17-0.136l0.07,0.075c-0.103,0.143-0.206,0.248-0.309,0.313c-0.104,0.066-0.22,0.098-0.349,0.098
		c-0.164,0-0.286-0.044-0.362-0.135c-0.076-0.092-0.117-0.238-0.117-0.437v-1.758H68.729z"/>
	<path fill="#51565D" d="M70.502,42.954l0.005-0.099c0.152-0.008,0.253-0.033,0.3-0.081c0.051-0.05,0.074-0.158,0.074-0.329v-1.347
		c0-0.158-0.017-0.255-0.051-0.291c-0.035-0.03-0.106-0.048-0.211-0.048h-0.086v-0.098c0.095-0.016,0.212-0.042,0.35-0.083
		c0.136-0.04,0.291-0.094,0.463-0.159v2.049c0,0.156,0.023,0.26,0.07,0.31c0.051,0.049,0.144,0.075,0.284,0.077v0.099H70.502z
		 M70.847,39.496c0-0.083,0.031-0.152,0.087-0.208c0.057-0.055,0.126-0.084,0.212-0.084c0.075,0,0.147,0.029,0.205,0.086
		c0.054,0.056,0.085,0.125,0.085,0.206s-0.031,0.149-0.085,0.207c-0.058,0.058-0.13,0.086-0.205,0.086
		c-0.084,0-0.153-0.028-0.212-0.086C70.878,39.646,70.847,39.577,70.847,39.496z"/>
	<path fill="#51565D" d="M73.235,43.018c-0.357,0-0.65-0.12-0.874-0.357c-0.223-0.24-0.336-0.548-0.336-0.928
		c0-0.388,0.118-0.704,0.352-0.948c0.237-0.242,0.544-0.364,0.921-0.364c0.364,0,0.657,0.116,0.874,0.346
		c0.217,0.23,0.328,0.54,0.328,0.922c0,0.406-0.114,0.729-0.343,0.968C73.929,42.897,73.619,43.018,73.235,43.018z M72.522,41.549
		c0,0.389,0.073,0.704,0.221,0.947c0.15,0.241,0.341,0.363,0.575,0.363c0.229,0,0.403-0.078,0.515-0.236
		c0.117-0.156,0.17-0.396,0.17-0.714c0-0.405-0.074-0.733-0.222-0.979c-0.15-0.246-0.346-0.369-0.584-0.369
		c-0.211,0-0.378,0.086-0.499,0.257C72.578,40.992,72.522,41.237,72.522,41.549z"/>
	<path fill="#51565D" d="M74.865,42.954v-0.097c0.152-0.009,0.252-0.035,0.299-0.083c0.053-0.05,0.076-0.158,0.076-0.329v-1.321
		c0-0.156-0.017-0.254-0.054-0.288c-0.034-0.034-0.108-0.052-0.222-0.052h-0.1v-0.099c0.098-0.013,0.206-0.039,0.329-0.079
		c0.127-0.039,0.299-0.101,0.508-0.187v0.414c0.147-0.139,0.291-0.238,0.429-0.302c0.139-0.063,0.274-0.095,0.41-0.095
		c0.229,0,0.387,0.069,0.483,0.213c0.095,0.14,0.146,0.395,0.146,0.759v1.121c0,0.119,0.023,0.204,0.071,0.251
		c0.048,0.045,0.138,0.07,0.267,0.074v0.099h-1.182l0.003-0.099c0.152-0.004,0.255-0.031,0.305-0.077
		c0.054-0.049,0.08-0.142,0.08-0.278v-1.096c0-0.235-0.035-0.404-0.104-0.505c-0.069-0.1-0.184-0.148-0.339-0.148
		c-0.102,0-0.205,0.022-0.303,0.066c-0.095,0.048-0.183,0.115-0.267,0.208v1.443c0,0.151,0.024,0.254,0.071,0.304
		c0.048,0.051,0.146,0.08,0.286,0.085v0.097H74.865z"/>
	<path fill="#51565D" d="M79.363,43.002v-1.313h0.149c0.08,0.376,0.206,0.656,0.379,0.84c0.174,0.182,0.393,0.273,0.666,0.273
		c0.19,0,0.343-0.055,0.462-0.161c0.116-0.106,0.174-0.246,0.174-0.417c0-0.12-0.031-0.227-0.101-0.313
		c-0.063-0.087-0.171-0.168-0.316-0.235l-0.483-0.241c-0.308-0.148-0.528-0.308-0.668-0.481c-0.139-0.175-0.21-0.38-0.21-0.618
		c0-0.311,0.098-0.562,0.291-0.753c0.192-0.192,0.444-0.29,0.756-0.29c0.182,0,0.369,0.029,0.564,0.086
		c0.195,0.053,0.305,0.08,0.329,0.08c0.047,0,0.081-0.014,0.109-0.042c0.029-0.029,0.048-0.071,0.055-0.124h0.146v1.144h-0.131
		c-0.074-0.294-0.206-0.528-0.389-0.708c-0.186-0.179-0.388-0.27-0.607-0.27c-0.171,0-0.314,0.048-0.419,0.143
		c-0.109,0.093-0.159,0.213-0.159,0.362c0,0.122,0.038,0.229,0.121,0.323c0.082,0.095,0.217,0.185,0.412,0.275l0.502,0.236
		c0.301,0.143,0.516,0.296,0.639,0.464c0.126,0.168,0.191,0.374,0.191,0.619c0,0.34-0.119,0.611-0.355,0.813
		c-0.237,0.203-0.55,0.304-0.948,0.304c-0.169,0-0.348-0.029-0.527-0.087c-0.185-0.057-0.286-0.087-0.309-0.087
		c-0.054,0-0.093,0.012-0.119,0.039c-0.028,0.025-0.048,0.071-0.065,0.141H79.363z"/>
	<path fill="#51565D" d="M83.211,42.983l-0.9-2.118c-0.047-0.111-0.089-0.187-0.124-0.221c-0.038-0.037-0.085-0.055-0.141-0.055
		c-0.005,0-0.011,0.002-0.021,0.003c-0.011,0.003-0.018,0.003-0.023,0.003v-0.099h1.116v0.099H83.06
		c-0.085,0-0.147,0.012-0.185,0.038c-0.039,0.023-0.055,0.062-0.055,0.117c0,0.037,0.005,0.081,0.013,0.127
		c0.017,0.049,0.034,0.099,0.061,0.159l0.533,1.309l0.452-1.326c0.021-0.06,0.038-0.114,0.051-0.162
		c0.009-0.05,0.014-0.084,0.014-0.106c0-0.053-0.019-0.089-0.06-0.116c-0.041-0.025-0.1-0.039-0.173-0.039H83.66v-0.099h0.787v0.099
		h-0.008c-0.065,0-0.113,0.021-0.147,0.067c-0.041,0.041-0.091,0.144-0.153,0.312L83.394,43c-0.162,0.457-0.316,0.767-0.46,0.933
		c-0.138,0.164-0.302,0.247-0.497,0.247c-0.1,0-0.187-0.023-0.245-0.071c-0.063-0.049-0.09-0.115-0.09-0.2
		c0-0.069,0.021-0.127,0.066-0.172c0.045-0.045,0.104-0.064,0.171-0.064c0.059,0,0.126,0.013,0.195,0.04
		c0.069,0.031,0.116,0.046,0.138,0.046c0.136,0,0.3-0.219,0.491-0.661C83.182,43.049,83.198,43.011,83.211,42.983z"/>
	<path fill="#51565D" d="M84.726,42.983l-0.03-0.861h0.101c0.056,0.24,0.147,0.428,0.277,0.562c0.123,0.13,0.27,0.196,0.439,0.196
		c0.138,0,0.245-0.039,0.329-0.11c0.077-0.074,0.121-0.17,0.121-0.29c0-0.088-0.026-0.167-0.081-0.236
		c-0.053-0.067-0.15-0.14-0.283-0.221l-0.465-0.267c-0.154-0.09-0.271-0.188-0.341-0.293c-0.071-0.104-0.105-0.226-0.105-0.37
		c0-0.196,0.066-0.357,0.203-0.483c0.136-0.125,0.313-0.189,0.524-0.189c0.103,0,0.207,0.018,0.321,0.049s0.176,0.046,0.19,0.046
		c0.026,0,0.046-0.007,0.064-0.023c0.015-0.013,0.028-0.035,0.041-0.065h0.082l0.039,0.747h-0.1
		c-0.037-0.194-0.107-0.344-0.212-0.452c-0.108-0.107-0.236-0.159-0.389-0.159c-0.122,0-0.217,0.03-0.291,0.097
		c-0.076,0.062-0.113,0.143-0.113,0.241c0,0.089,0.03,0.17,0.085,0.24c0.059,0.07,0.15,0.14,0.275,0.209l0.458,0.25
		c0.155,0.081,0.276,0.181,0.348,0.294c0.076,0.11,0.115,0.239,0.115,0.39c0,0.212-0.07,0.386-0.216,0.523
		c-0.137,0.137-0.32,0.205-0.542,0.205c-0.103,0-0.229-0.016-0.372-0.052c-0.143-0.038-0.228-0.056-0.267-0.056
		c-0.034,0-0.067,0.006-0.085,0.018c-0.019,0.012-0.031,0.035-0.039,0.063H84.726z"/>
	<path fill="#51565D" d="M86.65,40.682v-0.07c0.167-0.097,0.312-0.217,0.431-0.36c0.124-0.145,0.225-0.312,0.306-0.5h0.101v0.746
		h0.583v0.185h-0.583v1.654c0,0.137,0.016,0.232,0.052,0.286c0.04,0.055,0.102,0.082,0.195,0.082c0.062,0,0.121-0.015,0.181-0.044
		c0.061-0.031,0.116-0.074,0.174-0.136l0.069,0.075c-0.103,0.143-0.205,0.248-0.309,0.313c-0.104,0.066-0.221,0.098-0.352,0.098
		c-0.162,0-0.286-0.044-0.362-0.135c-0.076-0.092-0.11-0.238-0.11-0.437v-1.758H86.65z"/>
	<path fill="#51565D" d="M90.62,42.03l0.093,0.058c-0.146,0.313-0.312,0.546-0.503,0.7c-0.19,0.152-0.414,0.229-0.662,0.229
		c-0.312,0-0.565-0.114-0.761-0.343c-0.195-0.228-0.293-0.524-0.293-0.893c0-0.403,0.104-0.73,0.316-0.979
		c0.21-0.247,0.486-0.373,0.827-0.373c0.275,0,0.496,0.086,0.666,0.26c0.166,0.173,0.259,0.409,0.278,0.715H88.89v0.056
		c0,0.348,0.079,0.627,0.245,0.835c0.159,0.206,0.379,0.31,0.646,0.31c0.166,0,0.319-0.049,0.459-0.145
		C90.377,42.365,90.506,42.222,90.62,42.03z M88.906,41.249h1.014c0.063,0,0.108-0.006,0.119-0.016
		c0.014-0.014,0.019-0.04,0.019-0.078c0-0.16-0.047-0.293-0.147-0.398c-0.098-0.105-0.226-0.161-0.379-0.161
		c-0.174,0-0.319,0.059-0.428,0.172C88.993,40.881,88.927,41.044,88.906,41.249z"/>
	<path fill="#51565D" d="M91.037,42.954v-0.097c0.147-0.009,0.245-0.035,0.293-0.08c0.048-0.049,0.073-0.137,0.073-0.263v-1.331
		c0-0.178-0.021-0.286-0.065-0.33c-0.036-0.047-0.123-0.069-0.249-0.069h-0.052v-0.099c0.153-0.023,0.296-0.061,0.44-0.104
		c0.138-0.045,0.269-0.1,0.386-0.161v0.436c0.151-0.146,0.295-0.25,0.426-0.316c0.134-0.069,0.26-0.102,0.381-0.102
		c0.147,0,0.27,0.035,0.374,0.111c0.103,0.073,0.177,0.18,0.222,0.316c0.2-0.161,0.364-0.272,0.49-0.334
		c0.129-0.063,0.246-0.094,0.357-0.094c0.226,0,0.393,0.064,0.494,0.196c0.101,0.129,0.154,0.349,0.154,0.658v1.153
		c0,0.188,0.021,0.303,0.061,0.345c0.043,0.038,0.141,0.062,0.29,0.065v0.099h-1.203l0.002-0.099
		c0.167-0.008,0.271-0.027,0.316-0.062c0.051-0.036,0.074-0.125,0.074-0.264v-1.333c0-0.136-0.039-0.243-0.117-0.319
		c-0.08-0.076-0.188-0.113-0.328-0.113c-0.088,0-0.175,0.02-0.26,0.063c-0.087,0.04-0.181,0.106-0.288,0.202v1.47
		c0,0.149,0.021,0.247,0.071,0.29c0.045,0.043,0.146,0.065,0.3,0.065v0.099h-1.22l0.003-0.099c0.162-0.011,0.267-0.033,0.317-0.068
		c0.051-0.039,0.073-0.107,0.073-0.216v-1.356c0-0.144-0.033-0.254-0.107-0.334c-0.076-0.078-0.176-0.116-0.31-0.116
		c-0.087,0-0.181,0.022-0.276,0.067c-0.091,0.044-0.19,0.114-0.297,0.21v1.493c0,0.128,0.024,0.211,0.074,0.253
		c0.045,0.04,0.146,0.064,0.299,0.069v0.097H91.037z"/>
</g>
<path fill="#C52819" d="M99.516,36.552c0,1.314-1.066,2.382-2.382,2.382c-1.312,0-2.379-1.067-2.379-2.382
	c0-1.312,1.067-2.379,2.379-2.379C98.449,34.173,99.516,35.24,99.516,36.552z"/>
</svg>
