<?xml version="1.0" encoding="utf-8"?>
<!-- Generator: Adobe Illustrator 13.0.1, SVG Export Plug-In . SVG Version: 6.00 Build 14948)  -->
<!DOCTYPE svg PUBLIC "-//W3C//DTD SVG 1.1//EN" "http://www.w3.org/Graphics/SVG/1.1/DTD/svg11.dtd">
<svg version="1.1" xmlns="http://www.w3.org/2000/svg" xmlns:xlink="http://www.w3.org/1999/xlink" x="0px" y="0px" width="110px"
	 height="110px" viewBox="0 0 110 110" enable-background="new 0 0 110 110" xml:space="preserve">
<g id="레이어_1" display="none">
	<g display="inline">
		<path fill="#B2B2B2" stroke="#000000" d="M5.986,103.926h98.094V5.83H5.986V103.926z M94.271,15.64v78.476H15.795V15.64H94.271z"
			/>
	</g>
	<g display="inline">
		<rect x="25.605" y="89.266" fill="#666666" stroke="#000000" width="58.857" height="19.618"/>
		<rect x="25.605" y="0.885" fill="#666666" stroke="#000000" width="58.857" height="19.619"/>
	</g>
	<g display="inline">
		<rect x="1.033" y="25.456" fill="#C0C0C0" stroke="#000000" width="19.619" height="58.857"/>
		<rect x="89.414" y="25.456" fill="#C0C0C0" stroke="#000000" width="19.619" height="58.857"/>
	</g>
</g>
<g id="레이어_1_사본">
	<g>
		<path fill="#B2B2B2" stroke="#000000" d="M5.986,103.926h98.094V5.83H5.986V103.926z M94.271,15.64v78.476H15.795V15.64H94.271z"
			/>
	</g>
	<g>
		<rect x="25.605" y="89.266" fill="#29CC00" stroke="#000000" width="58.857" height="19.618"/>
		<rect x="25.605" y="0.885" fill="#29CC00" stroke="#000000" width="58.857" height="19.619"/>
	</g>
	<g>
		<rect x="1.033" y="25.456" fill="#C0C0C0" stroke="#000000" width="19.619" height="58.857"/>
		<rect x="89.414" y="25.456" fill="#C0C0C0" stroke="#000000" width="19.619" height="58.857"/>
	</g>
</g>
<g id="레이어_1_사본_2" display="none">
	<g display="inline">
		<path fill="#B2B2B2" stroke="#000000" d="M5.986,103.926h98.094V5.83H5.986V103.926z M94.271,15.64v78.476H15.795V15.64H94.271z"
			/>
	</g>
	<g display="inline">
		<rect x="25.605" y="89.266" fill="#C11319" stroke="#000000" width="58.857" height="19.618"/>
		<rect x="25.605" y="0.885" fill="#C11319" stroke="#000000" width="58.857" height="19.619"/>
	</g>
	<g display="inline">
		<rect x="1.033" y="25.456" fill="#C0C0C0" stroke="#000000" width="19.619" height="58.857"/>
		<rect x="89.414" y="25.456" fill="#C0C0C0" stroke="#000000" width="19.619" height="58.857"/>
	</g>
</g>
</svg>
