<?xml version="1.0" encoding="utf-8"?>
<!-- Generator: Adobe Illustrator 13.0.1, SVG Export Plug-In . SVG Version: 6.00 Build 14948)  -->
<!DOCTYPE svg PUBLIC "-//W3C//DTD SVG 1.1//EN" "http://www.w3.org/Graphics/SVG/1.1/DTD/svg11.dtd">
<svg version="1.1" xmlns="http://www.w3.org/2000/svg" xmlns:xlink="http://www.w3.org/1999/xlink" x="0px" y="0px" width="110px"
	 height="110px" viewBox="0 0 110 110" enable-background="new 0 0 110 110" xml:space="preserve">
<g id="레이어_1">
	<g>
		<path fill="#B2B2B2" stroke="#000000" d="M5.885,104.126h98.094V6.031H5.885V104.126z M94.17,15.84v78.477H15.695V15.84H94.17z"/>
	</g>
	<g>
		<rect x="25.504" y="89.466" fill="#C0C0C0" stroke="#000000" width="58.857" height="19.618"/>
		<rect x="25.504" y="1.085" fill="#C0C0C0" stroke="#000000" width="58.857" height="19.619"/>
	</g>
	<g>
		<rect x="0.933" y="25.656" fill="#666666" stroke="#000000" width="19.619" height="58.857"/>
		<rect x="89.313" y="25.656" fill="#666666" stroke="#000000" width="19.619" height="58.857"/>
	</g>
</g>
<g id="레이어_1_사본" display="none">
	<g display="inline">
		<path fill="#B2B2B2" stroke="#000000" d="M5.885,104.126h98.094V6.031H5.885V104.126z M94.17,15.84v78.477H15.695V15.84H94.17z"/>
	</g>
	<g display="inline">
		<rect x="25.504" y="89.466" fill="#C0C0C0" stroke="#000000" width="58.857" height="19.618"/>
		<rect x="25.504" y="1.085" fill="#C0C0C0" stroke="#000000" width="58.857" height="19.619"/>
	</g>
	<g display="inline">
		<rect x="0.933" y="25.656" fill="#29CC00" stroke="#000000" width="19.619" height="58.857"/>
		<rect x="89.313" y="25.656" fill="#29CC00" stroke="#000000" width="19.619" height="58.857"/>
	</g>
</g>
<g id="레이어_1_사본_2" display="none">
	<g display="inline">
		<path fill="#B2B2B2" stroke="#000000" d="M5.885,104.126h98.094V6.031H5.885V104.126z M94.17,15.84v78.477H15.695V15.84H94.17z"/>
	</g>
	<g display="inline">
		<rect x="25.504" y="89.466" fill="#C0C0C0" stroke="#000000" width="58.857" height="19.618"/>
		<rect x="25.504" y="1.085" fill="#C0C0C0" stroke="#000000" width="58.857" height="19.619"/>
	</g>
	<g display="inline">
		<rect x="0.933" y="25.656" fill="#C11319" stroke="#000000" width="19.619" height="58.857"/>
		<rect x="89.313" y="25.656" fill="#C11319" stroke="#000000" width="19.619" height="58.857"/>
	</g>
</g>
</svg>
