<?xml version="1.0" encoding="utf-8"?>
<!-- Generator: Adobe Illustrator 13.0.1, SVG Export Plug-In . SVG Version: 6.00 Build 14948)  -->
<!DOCTYPE svg PUBLIC "-//W3C//DTD SVG 1.1//EN" "http://www.w3.org/Graphics/SVG/1.1/DTD/svg11.dtd">
<svg version="1.1" id="레이어_1" xmlns="http://www.w3.org/2000/svg" xmlns:xlink="http://www.w3.org/1999/xlink" x="0px"
	 y="0px" width="120px" height="120px" viewBox="0 0 120 120" enable-background="new 0 0 120 120" xml:space="preserve">
<g>
	<path fill="#666666" stroke="#000000" stroke-width="3" d="M60,118.131c27.724,0,50.907-19.372,56.789-45.316l-76.555,41.869
		C46.404,116.912,53.061,118.131,60,118.131z"/>
	<path fill="#666666" stroke="#000000" stroke-width="3" d="M116.789,46.948C110.907,21.004,87.724,1.631,60,1.631
		c-6.939,0-13.596,1.22-19.766,3.445L116.789,46.948z"/>
	<path fill="#666666" stroke="#000000" stroke-width="3" d="M1.75,59.881c0,25.232,16.042,46.708,38.484,54.803l76.555-41.869
		c0.944-4.164,1.461-8.487,1.461-12.934c0-4.448-0.517-8.773-1.461-12.933L40.234,5.076C17.792,13.17,1.75,34.649,1.75,59.881z"/>
</g>
<circle fill="#666666" stroke="#000000" stroke-width="3" cx="60" cy="59.881" r="24.271"/>
<circle fill="#666666" stroke="#000000" stroke-width="3" cx="60" cy="59.881" r="14.563"/>
</svg>
