<?xml version="1.0" encoding="utf-8"?>
<!-- Generator: Adobe Illustrator 13.0.1, SVG Export Plug-In . SVG Version: 6.00 Build 14948)  -->
<!DOCTYPE svg PUBLIC "-//W3C//DTD SVG 1.1//EN" "http://www.w3.org/Graphics/SVG/1.1/DTD/svg11.dtd">
<svg version="1.1" id="레이어_1" xmlns="http://www.w3.org/2000/svg" xmlns:xlink="http://www.w3.org/1999/xlink" x="0px"
	 y="0px" width="108px" height="167px" viewBox="0 0 108 167" enable-background="new 0 0 108 167" xml:space="preserve">
<linearGradient id="SVGID_1_" gradientUnits="userSpaceOnUse" x1="1.8203" y1="72.0479" x2="106.1543" y2="72.0479">
	<stop  offset="0" style="stop-color:#333333"/>
	<stop  offset="0.1243" style="stop-color:#424242"/>
	<stop  offset="0.3504" style="stop-color:#595959"/>
	<stop  offset="0.4945" style="stop-color:#616161"/>
	<stop  offset="0.646" style="stop-color:#585858"/>
	<stop  offset="0.8924" style="stop-color:#404040"/>
	<stop  offset="1" style="stop-color:#333333"/>
</linearGradient>
<polyline fill-rule="evenodd" clip-rule="evenodd" fill="url(#SVGID_1_)" points="106.154,142.784 106.154,24.716 105.82,22.374 
	105.48,20.032 104.816,17.692 103.475,15.563 101.795,13.437 100.115,11.524 98.105,9.821 95.756,8.12 93.404,6.628 90.723,5.14 
	87.703,4.075 85.021,3.015 81.666,2.378 78.311,1.739 74.621,1.524 70.928,1.312 36.373,1.312 36.373,1.312 32.684,1.524 
	29.328,1.739 25.971,2.378 22.955,3.015 19.934,4.075 16.914,5.14 14.232,6.628 11.883,8.12 9.535,9.821 7.521,11.524 5.844,13.437 
	4.17,15.563 3.162,17.692 2.488,20.032 2.156,22.374 1.82,24.716 1.82,142.784 "/>
<linearGradient id="SVGID_2_" gradientUnits="userSpaceOnUse" x1="1.1504" y1="142.7842" x2="106.1543" y2="142.7842">
	<stop  offset="0" style="stop-color:#4D4D4D"/>
	<stop  offset="0.4945" style="stop-color:#8C8C8C"/>
	<stop  offset="1" style="stop-color:#4D4D4D"/>
</linearGradient>
<line fill="url(#SVGID_2_)" x1="106.154" y1="142.784" x2="1.15" y2="142.784"/>
<linearGradient id="SVGID_3_" gradientUnits="userSpaceOnUse" x1="1.7383" y1="153.6113" x2="106.0703" y2="153.6113">
	<stop  offset="0" style="stop-color:#333333"/>
	<stop  offset="0.1243" style="stop-color:#424242"/>
	<stop  offset="0.3504" style="stop-color:#595959"/>
	<stop  offset="0.4945" style="stop-color:#616161"/>
	<stop  offset="0.646" style="stop-color:#585858"/>
	<stop  offset="0.8924" style="stop-color:#404040"/>
	<stop  offset="1" style="stop-color:#333333"/>
</linearGradient>
<polyline fill-rule="evenodd" clip-rule="evenodd" fill="url(#SVGID_3_)" points="1.738,141.911 2.07,144.249 2.406,146.593 
	3.078,148.931 4.418,151.06 6.098,153.185 7.775,155.101 9.785,156.804 12.137,158.505 14.484,159.995 17.168,161.483 
	20.186,162.548 22.869,163.61 26.225,164.247 29.58,164.886 33.271,165.101 36.963,165.312 71.52,165.312 71.52,165.312 
	75.207,165.101 78.566,164.886 81.916,164.247 84.938,163.61 87.957,162.548 90.977,161.483 93.66,159.995 96.01,158.505 
	98.355,156.804 100.369,155.101 102.049,153.185 103.721,151.06 104.734,148.931 105.402,146.593 105.734,144.249 106.07,141.911 
	"/>
</svg>
