<?xml version="1.0" encoding="utf-8"?>
<!-- Generator: Adobe Illustrator 13.0.1, SVG Export Plug-In . SVG Version: 6.00 Build 14948)  -->
<!DOCTYPE svg PUBLIC "-//W3C//DTD SVG 1.1//EN" "http://www.w3.org/Graphics/SVG/1.1/DTD/svg11.dtd">
<svg version="1.1" id="레이어_1" xmlns="http://www.w3.org/2000/svg" xmlns:xlink="http://www.w3.org/1999/xlink" x="0px"
	 y="0px" width="100px" height="104px" viewBox="0 0 100 104" enable-background="new 0 0 100 104" xml:space="preserve">
<rect x="30.714" y="75.073" transform="matrix(0.7071 0.7072 -0.7072 0.7071 64.5383 -0.9091)" fill="#C0C0C0" stroke="#000000" width="5.306" height="4.739"/>
<rect x="78.942" y="25.772" transform="matrix(-0.7071 -0.7071 0.7071 -0.7071 120.5782 106.6938)" fill="#C0C0C0" stroke="#000000" width="6.892" height="5.201"/>
<rect x="84.816" y="19.704" transform="matrix(0.7071 0.7071 -0.7071 0.7071 41.6801 -56.0157)" fill="#C0C0C0" stroke="#000000" width="7.282" height="5.201"/>
<rect x="76.193" y="9.579" transform="matrix(0.7072 0.707 -0.707 0.7072 31.0064 -51.2902)" fill="#C0C0C0" stroke="#000000" width="2.47" height="4.422"/>
<rect x="71.616" y="8.035" transform="matrix(0.7071 0.7071 -0.7071 0.7071 30.543 -54.052)" fill="#C0C0C0" stroke="#000000" width="17.793" height="3.609"/>
<rect x="50.56" y="-3.873" transform="matrix(0.7075 0.7068 -0.7068 0.7075 34.4289 -28.18)" fill="#C0C0C0" stroke="#000000" width="1.39" height="62.744"/>
<rect x="71.951" y="12.845" transform="matrix(0.7071 0.7071 -0.7071 0.7071 31.9133 -49.1384)" fill="#C0C0C0" stroke="#000000" width="6.632" height="2.211"/>
<rect x="69.521" y="16.28" transform="matrix(0.7073 0.707 -0.707 0.7073 33.2797 -45.7876)" fill="#C0C0C0" stroke="#000000" width="4.812" height="2.022"/>
<rect x="51.653" y="10.468" transform="matrix(0.7071 0.7071 -0.7071 0.7071 41.1789 -26.7574)" fill="#C0C0C0" stroke="#000000" width="2.471" height="51.721"/>
<rect x="68.422" y="18.456" transform="matrix(0.7071 0.7071 -0.7071 0.7071 36.6444 -49.2034)" fill="#C0C0C0" stroke="#000000" width="18.596" height="2.66"/>
<rect x="91.554" y="14.266" transform="matrix(0.7071 0.7071 -0.7071 0.7071 39.1852 -62.0383)" fill="#C0C0C0" stroke="#000000" width="5.852" height="4.032"/>
<rect x="86.091" y="16.542" transform="matrix(0.7071 0.7071 -0.7071 0.7071 40.2848 -59.3688)" fill="#C0C0C0" stroke="#000000" width="11.444" height="4.811"/>
<rect x="79.627" y="23.961" transform="matrix(-0.7071 -0.7071 0.7071 -0.7071 127.5746 103.7962)" fill="#C0C0C0" stroke="#000000" width="10.814" height="4.031"/>
<rect x="42.632" y="61.886" transform="matrix(-0.7071 -0.7071 0.7071 -0.7071 32.614 143.1322)" fill="#C0C0C0" stroke="#000000" width="6.632" height="5.852"/>
<rect x="34.761" y="66.1" transform="matrix(-0.7071 -0.7071 0.7071 -0.7071 15.689 150.2746)" fill="#C0C0C0" stroke="#000000" width="8.41" height="11.577"/>
<rect x="58.78" y="23.405" transform="matrix(0.7071 0.7071 -0.7071 0.7071 51.6698 -31.8981)" fill="#C11319" stroke="#000000" width="11.119" height="46.033"/>
<rect x="24.119" y="56.57" transform="matrix(0.7071 0.7071 -0.7071 0.7071 52.0865 -8.4242)" fill="#C0C0C0" stroke="#000000" width="24.186" height="3.681"/>
<rect x="40.569" y="66.542" transform="matrix(0.7071 0.7071 -0.7071 0.7071 61.0593 -11.791)" fill="#C0C0C0" stroke="#000000" width="8.387" height="2.535"/>
<path fill="#C0C0C0" stroke="#000000" d="M2.553,100.902l21.51-21.509c9.455-2.001,7.219,7.219,7.219,7.219L16.4,101.493
	c0,0-0.413,1.727,1.652,1.559l15.135-15.135l1.851-5.453l-0.04-0.039l-6.653-6.653l-5.452,1.851L0.982,99.532
	C0.969,99.58,0.821,101.31,2.553,100.902z"/>
</svg>